<svg width="50" height="50" viewBox="0 0 50 50" fill="none" xmlns="http://www.w3.org/2000/svg">
<path fill-rule="evenodd" clip-rule="evenodd" d="M25 0C38.807 0 50 11.193 50 25C50 38.807 38.807 50 25 50C11.193 50 0 38.807 0 25C0 11.193 11.193 0 25 0Z" fill="white"/>
<path d="M30.625 15.4V13H19.375V15.4H16V37H22.75V34.6H27.25V37H34V15.4H30.625ZM23.875 31H21.625V28.6H23.875V31ZM23.875 26.2H21.625V23.8H23.875V26.2ZM23.875 21.4H21.625V19H23.875V21.4ZM28.375 31H26.125V28.6H28.375V31ZM28.375 26.2H26.125V23.8H28.375V26.2ZM28.375 21.4H26.125V19H28.375V21.4Z" fill="#7828E6"/>
</svg>
