<svg width="93" height="70" viewBox="0 0 93 70" fill="none" xmlns="http://www.w3.org/2000/svg">
<path d="M77.7858 6.23603H67.0835V2.01044C67.0835 1.47724 67.294 0.965878 67.6687 0.588847C68.0434 0.211815 68.5516 0 69.0815 0H75.7859C76.3158 0 76.824 0.211815 77.1987 0.588847C77.5734 0.965878 77.784 1.47724 77.784 2.01044L77.7858 6.23603Z" fill="#618BAA"/>
<path d="M27.5076 4.32429V11.3645H8.79858V4.32429C8.79858 3.79108 9.00909 3.27972 9.38379 2.90269C9.7585 2.52566 10.2667 2.31384 10.7966 2.31384H25.4986C26.0285 2.31384 26.5368 2.52566 26.9115 2.90269C27.2862 3.27972 27.4967 3.79108 27.4967 4.32429H27.5076Z" fill="#E3F4FF"/>
<path d="M27.5078 6.80444H8.80786V11.3645H27.5078V6.80444Z" fill="#BDDFF4"/>
<path d="M81.7854 11.3644H63.0764V7.14069C63.0764 6.60749 63.2869 6.09613 63.6616 5.7191C64.0363 5.34206 64.5445 5.13025 65.0745 5.13025H79.7746C80.3045 5.13025 80.8128 5.34206 81.1875 5.7191C81.5622 6.09613 81.7727 6.60749 81.7727 7.14069L81.7854 11.3644Z" fill="#38627C"/>
<path d="M40.3024 11.3644H33.6035V6.33649C33.6035 5.80329 33.814 5.29192 34.1887 4.91489C34.5634 4.53786 35.0716 4.32605 35.6016 4.32605H38.308C38.8379 4.32605 39.3461 4.53786 39.7208 4.91489C40.0955 5.29192 40.3061 5.80329 40.3061 6.33649L40.3024 11.3644Z" fill="#FC3E81"/>
<path d="M93 13.2415V63.3984C93 64.4648 92.579 65.4875 91.8296 66.2416C91.0802 66.9956 90.0637 67.4193 89.0039 67.4193H3.99609C2.93626 67.4193 1.91984 66.9956 1.17043 66.2416C0.421018 65.4875 0 64.4648 0 63.3984V13.2415C0 12.1751 0.421018 11.1523 1.17043 10.3983C1.91984 9.64421 2.93626 9.22058 3.99609 9.22058H89.0039C90.0637 9.22058 91.0802 9.64421 91.8296 10.3983C92.579 11.1523 93 12.1751 93 13.2415Z" fill="#9CC6DB"/>
<path d="M74.1456 44.5953C74.1449 49.0825 73.0649 53.5029 70.9978 57.4789C68.9308 61.455 65.9382 64.8687 62.2754 67.4285H30.7245C27.0617 64.8687 24.0691 61.455 22.0021 57.4789C19.935 53.5029 18.855 49.0825 18.8542 44.5953C18.8542 29.2574 31.2567 16.7781 46.5 16.7781C61.7432 16.7781 74.1456 29.2428 74.1456 44.5953Z" fill="#84A1C0"/>
<path d="M84.1451 21.7292H74.836C74.3398 21.7292 73.8639 21.5309 73.5131 21.1779C73.1622 20.8248 72.9651 20.346 72.9651 19.8467V17.0705C72.9651 16.5711 73.1621 16.092 73.513 15.7387C73.8638 15.3854 74.3396 15.1866 74.836 15.1862H84.1542C84.6505 15.1866 85.1264 15.3854 85.4772 15.7387C85.828 16.092 86.0251 16.5711 86.0251 17.0705V19.8467C86.0251 20.346 85.828 20.8248 85.4771 21.1779C85.1262 21.5309 84.6504 21.7292 84.1542 21.7292H84.1451Z" fill="#FC3E81"/>
<path d="M93 21.7311H0V61.4538H93V21.7311Z" fill="#618BAA"/>
<path d="M74.1458 44.5953C74.1527 50.6888 72.1606 56.6141 68.4786 61.452H24.5216C22.2527 58.4647 20.6101 55.0451 19.6932 51.4002C18.7763 47.7554 18.6043 43.9613 19.1875 40.2476C19.7706 36.5339 21.0969 32.978 23.086 29.7952C25.075 26.6124 27.6854 23.869 30.7591 21.7311H62.2411C65.9145 24.29 68.9165 27.7069 70.9899 31.6891C73.0632 35.6712 74.1462 40.0998 74.1458 44.5953Z" fill="#4E7693"/>
<path d="M76.3381 48.2671H70.4893V40.0151H76.3381C76.6469 40.0151 76.9527 40.0764 77.238 40.1953C77.5233 40.3143 77.7825 40.4887 78.0007 40.7085C78.219 40.9283 78.3921 41.1892 78.5101 41.4764C78.6281 41.7635 78.6888 42.0712 78.6885 42.382V45.9003C78.69 46.2118 78.6302 46.5205 78.5128 46.8087C78.3953 47.0969 78.2224 47.3589 78.004 47.5797C77.7856 47.8004 77.526 47.9756 77.2401 48.0952C76.9542 48.2147 76.6477 48.2762 76.3381 48.2762V48.2671Z" fill="#38627C"/>
<path d="M71.7481 44.5952C71.7481 49.6198 70.2673 54.5316 67.493 58.7093C64.7187 62.8871 60.7755 66.1433 56.162 68.0661C51.5485 69.9889 46.472 70.492 41.5744 69.5118C36.6767 68.5316 32.1779 66.112 28.6469 62.5591C25.1159 59.0062 22.7113 54.4795 21.7371 49.5515C20.7629 44.6234 21.2629 39.5154 23.1739 34.8733C25.0848 30.2312 28.3209 26.2635 32.473 23.472C36.625 20.6805 41.5064 19.1906 46.5 19.1906C53.1962 19.1906 59.6181 21.8671 64.3531 26.6314C69.088 31.3957 71.7481 37.8575 71.7481 44.5952Z" fill="#E3F4FF"/>
<path d="M66.3132 44.5952C66.3118 48.5379 65.1486 52.3917 62.9706 55.6692C60.7926 58.9468 57.6976 61.5009 54.0771 63.0087C50.4566 64.5165 46.473 64.9103 42.6301 64.1402C38.7871 63.3702 35.2574 61.4708 32.4872 58.6824C29.7169 55.894 27.8306 52.3417 27.0667 48.4746C26.3028 44.6075 26.6956 40.5994 28.1954 36.9569C29.6953 33.3145 32.2348 30.2013 35.4929 28.011C38.7511 25.8207 42.5815 24.6516 46.4999 24.6516C49.1024 24.6516 51.6795 25.1675 54.0838 26.1699C56.4881 27.1722 58.6727 28.6414 60.5126 30.4934C62.3526 32.3454 63.8118 34.5441 64.8071 36.9637C65.8024 39.3833 66.3142 41.9765 66.3132 44.5952Z" fill="#BDDFF4"/>
<path d="M63.9793 44.5953C63.9779 48.0735 62.9515 51.4732 61.03 54.3645C59.1085 57.2558 56.3781 59.509 53.184 60.839C49.99 62.1691 46.4757 62.5163 43.0856 61.8369C39.6954 61.1574 36.5816 59.4818 34.1378 57.0218C31.694 54.5618 30.0299 51.428 29.3561 48.0165C28.6822 44.605 29.0288 41.0691 30.352 37.8557C31.6752 34.6424 33.9155 31.896 36.7898 29.9638C39.6641 28.0316 43.0433 27.0002 46.5 27.0002C48.796 27.0005 51.0694 27.4558 53.1905 28.3402C55.3115 29.2246 57.2387 30.5208 58.8618 32.1547C60.4849 33.7886 61.7723 35.7282 62.6504 37.8628C63.5285 39.9974 63.98 42.2851 63.9793 44.5953Z" fill="#38627C"/>
<path d="M58.2848 44.5952C58.2833 46.9402 57.591 49.2321 56.2951 51.1812C54.9993 53.1303 53.1583 54.649 51.0048 55.5454C48.8512 56.4417 46.4819 56.6755 44.1964 56.2172C41.9108 55.7588 39.8116 54.6289 38.1642 52.9702C36.5168 51.3115 35.3951 49.1986 34.941 46.8986C34.4869 44.5986 34.7207 42.2147 35.6129 40.0484C36.505 37.8821 38.0155 36.0305 39.9534 34.7279C41.8912 33.4253 44.1694 32.73 46.4999 32.73C48.0481 32.73 49.5812 33.0369 51.0115 33.6333C52.4418 34.2297 53.7412 35.1038 54.8356 36.2057C55.9301 37.3076 56.798 38.6156 57.3898 40.0552C57.9816 41.4947 58.2857 43.0374 58.2848 44.5952Z" fill="#3FEFEF"/>
<path d="M18.1641 21.7293C18.1645 22.5117 17.9342 23.2766 17.5025 23.9273C17.0707 24.578 16.4568 25.0852 15.7385 25.3848C15.0202 25.6843 14.2297 25.7628 13.467 25.6103C12.7044 25.4577 12.0038 25.081 11.454 24.5278C10.9042 23.9745 10.5298 23.2696 10.3782 22.5022C10.2266 21.7349 10.3046 20.9395 10.6023 20.2167C10.9 19.4939 11.4041 18.8762 12.0508 18.4418C12.6975 18.0073 13.4577 17.7756 14.2353 17.776C15.2771 17.7765 16.2762 18.1931 17.0129 18.9344C17.7496 19.6757 18.1637 20.6809 18.1641 21.7293Z" fill="#3FEFEF"/>
</svg>
