<svg width="52" height="52" viewBox="0 0 52 52" fill="none" xmlns="http://www.w3.org/2000/svg">
<path d="M51.3286 3.6539C51.2553 2.89186 50.9254 2.17939 50.3951 1.63808C49.8648 1.09677 49.1671 0.760163 48.4209 0.685689C39.0912 -0.228563 29.6973 -0.228563 20.3676 0.685689C19.6196 0.759163 18.9199 1.09603 18.3884 1.63857C17.8569 2.18111 17.5268 2.89554 17.4545 3.65943C16.7549 11.1146 16.6024 18.6127 16.9981 26.0911C14.261 26.1713 11.5117 26.3124 8.73674 26.5185C6.41667 26.691 4.24227 27.7383 2.63612 29.4569C1.02998 31.1754 0.10684 33.4424 0.0461046 35.8173C-0.0134852 38.0829 -0.0148462 40.3817 0.0393264 42.6445C0.0838539 44.7426 0.805077 46.7671 2.09112 48.4039C2.2186 48.5595 2.40062 48.658 2.5983 48.6785C2.79597 48.6989 2.99363 48.6396 3.14905 48.5131C3.30447 48.3867 3.40533 48.2033 3.43009 48.002C3.45485 47.8006 3.40154 47.5974 3.28156 47.4357C2.20403 46.0642 1.5999 44.3679 1.56293 42.6099C1.50876 40.372 1.51147 38.1009 1.56971 35.863C1.61353 33.8721 2.38364 31.9698 3.72917 30.5286C5.07471 29.0874 6.89868 28.2112 8.84373 28.0718C17.6838 27.4053 26.5599 27.4021 35.4005 28.0621C37.3395 28.1995 39.1587 29.0703 40.5026 30.5044C41.8465 31.9386 42.6185 33.8329 42.6678 35.8173C42.7273 38.0594 42.7287 40.3416 42.6759 42.5947C42.6281 44.6792 41.7882 46.663 40.3338 48.1264C38.8795 49.5898 36.9247 50.4179 34.8831 50.4357H34.141C32.4885 50.4322 30.8806 49.8882 29.553 48.8833C28.2254 47.8784 27.248 46.4656 26.764 44.852C26.5231 44.0238 26.0267 43.2972 25.3488 42.7803C24.6709 42.2634 23.8477 41.9839 23.0017 41.9833H21.2411C20.3927 41.9826 19.5669 42.2625 18.8872 42.7811C18.2076 43.2997 17.7106 44.0292 17.4707 44.8603C16.9869 46.4734 16.0099 47.8859 14.6828 48.8908C13.3558 49.8956 11.7485 50.4399 10.0965 50.444H9.35431C7.9456 50.436 6.56518 50.0394 5.35908 49.296C5.18631 49.1892 4.97909 49.1569 4.78302 49.2062C4.58694 49.2555 4.41807 49.3823 4.31354 49.5588C4.20902 49.7352 4.17741 49.9468 4.22567 50.1471C4.27392 50.3473 4.3981 50.5198 4.57087 50.6265C6.01163 51.5161 7.66129 51.9907 9.34483 52H10.1032C12.0783 51.9879 13.9982 51.3338 15.5846 50.1323C17.1711 48.9309 18.3417 47.2447 18.9266 45.3181C19.073 44.8094 19.3761 44.3625 19.7908 44.0436C20.2055 43.7247 20.7098 43.5508 21.2289 43.5477H22.9896C23.5084 43.5512 24.0124 43.725 24.427 44.0436C24.8416 44.3622 25.1448 44.8085 25.2919 45.3167C25.8771 47.2459 27.0496 48.9342 28.6388 50.1361C30.228 51.3381 32.1512 51.991 34.1288 52H34.8859C37.3237 51.9806 39.6585 50.9929 41.3959 49.2462C43.1332 47.4995 44.1368 45.1309 44.1941 42.6417C44.2496 40.3582 44.2469 38.0497 44.1941 35.7814C44.1941 35.7302 44.1941 35.6804 44.1859 35.6306C45.5971 35.5338 47.0192 35.4176 48.425 35.2793C49.1712 35.2029 49.8684 34.8646 50.3978 34.3221C50.9273 33.7797 51.2562 33.0665 51.3286 32.3042C52.2238 22.7759 52.2238 13.1821 51.3286 3.6539ZM49.8118 32.1562C49.7734 32.5603 49.5987 32.9383 49.3176 33.2255C49.0364 33.5126 48.6663 33.691 48.2706 33.7302C46.8512 33.8685 45.417 33.9874 43.9923 34.0829C43.6496 32.3805 42.8566 30.8067 41.6994 29.5324C43.2393 28.5157 44.5598 27.1888 45.58 25.6328C46.6001 24.0767 47.2985 22.3244 47.6324 20.483C47.9662 18.6417 47.9285 16.7501 47.5215 14.9242C47.1144 13.0983 46.3467 11.3765 45.2653 9.86417C45.2063 9.78171 45.1319 9.71193 45.0465 9.65882C44.961 9.60572 44.8661 9.57032 44.7673 9.55465C44.6684 9.53898 44.5676 9.54335 44.4704 9.5675C44.3732 9.59166 44.2816 9.63513 44.2008 9.69543C44.1201 9.75574 44.0518 9.83169 43.9998 9.91896C43.9478 10.0062 43.9131 10.1031 43.8978 10.2041C43.8824 10.305 43.8867 10.4081 43.9104 10.5073C43.934 10.6066 43.9766 10.7001 44.0356 10.7826C45.0145 12.1521 45.7032 13.7149 46.0578 15.3714C46.4124 17.0278 46.4252 18.7416 46.0953 20.4034C45.7654 22.0651 45.1001 23.6385 44.1418 25.0231C43.1834 26.4077 41.9531 27.5732 40.5293 28.4452C39.076 27.3126 37.3298 26.6394 35.5061 26.5088C32.1203 26.2585 28.7725 26.1022 25.4233 26.0413C23.4126 23.7318 22.3353 20.729 22.4089 17.6396C22.4825 14.5502 23.7016 11.6044 25.8199 9.39754C27.9381 7.19067 30.7976 5.88718 33.8206 5.75043C36.8436 5.61369 39.8047 6.65388 42.1057 8.66085C42.2601 8.79148 42.4587 8.85463 42.6584 8.83656C42.8581 8.8185 43.0428 8.72069 43.1723 8.56438C43.3018 8.40806 43.3657 8.20588 43.3501 8.00174C43.3345 7.7976 43.2407 7.60799 43.0889 7.47411C40.5787 5.31163 37.3813 4.16032 34.0981 4.23671C30.8149 4.31309 27.6722 5.61192 25.2609 7.8889C22.8497 10.1659 21.3361 13.2641 21.0049 16.601C20.6736 19.9378 21.5475 23.2832 23.4622 26.0081C21.8172 25.9971 20.1703 26.0081 18.5217 26.0413C18.1274 18.6258 18.2772 11.1905 18.9699 3.79774C19.0088 3.3934 19.1838 3.01534 19.4651 2.72805C19.7464 2.44076 20.1166 2.26203 20.5125 2.22235C29.7459 1.31916 39.0426 1.31916 48.276 2.22235C48.6719 2.26156 49.0422 2.44018 49.3234 2.72759C49.6046 3.015 49.7791 3.39332 49.8172 3.79774C50.7043 13.2275 50.7043 22.7223 49.8172 32.152L49.8118 32.1562Z" fill="black"/>
<path d="M34.3996 14.8255C33.7889 14.8255 33.1919 15.0104 32.6841 15.357C32.1763 15.7035 31.7805 16.196 31.5468 16.7722C31.3131 17.3485 31.252 17.9825 31.3711 18.5943C31.4902 19.206 31.7843 19.7679 32.2162 20.2089C32.648 20.65 33.1982 20.9503 33.7972 21.072C34.3962 21.1937 35.017 21.1312 35.5813 20.8925C36.1455 20.6539 36.6278 20.2497 36.9671 19.7311C37.3063 19.2125 37.4875 18.6028 37.4875 17.979C37.4864 17.143 37.1607 16.3415 36.5819 15.7504C36.003 15.1592 35.2182 14.8266 34.3996 14.8255ZM34.3996 19.5752C34.0901 19.5763 33.7873 19.4836 33.5294 19.3088C33.2715 19.1341 33.0702 18.8851 32.9508 18.5935C32.8315 18.3018 32.7996 17.9806 32.8592 17.6704C32.9187 17.3602 33.067 17.0751 33.2852 16.851C33.5035 16.6269 33.782 16.474 34.0854 16.4116C34.3888 16.3492 34.7035 16.3801 34.9897 16.5004C35.2758 16.6208 35.5207 16.8251 35.6931 17.0875C35.8655 17.35 35.9579 17.6588 35.9584 17.9749C35.9588 18.398 35.7949 18.804 35.5027 19.104C35.2106 19.4039 34.8139 19.5734 34.3996 19.5752Z" fill="black"/>
<path d="M10.3687 31.1271H9.14986C8.57932 31.1289 8.03271 31.3615 7.62966 31.7739C7.2266 32.1863 6.99992 32.745 6.9992 33.3276V34.8021H5.5528C4.98119 34.8028 4.4332 35.035 4.02902 35.4478C3.62483 35.8606 3.39745 36.4202 3.39673 37.004V38.2488C3.39852 38.8318 3.62642 39.3902 4.03053 39.8019C4.43464 40.2135 4.98202 40.4449 5.5528 40.4453H6.99649V41.9197C6.99828 42.5028 7.22638 43.0615 7.63078 43.4732C8.03518 43.8849 8.58291 44.1161 9.15392 44.1161H10.3728C10.9444 44.1154 11.4924 43.8831 11.8966 43.4703C12.3008 43.0576 12.5282 42.4979 12.5289 41.9141V40.4453H13.9726C14.5438 40.4445 15.0915 40.2124 15.4954 39.7999C15.8993 39.3874 16.1266 38.8281 16.1273 38.2447V36.9999C16.1269 36.4162 15.8998 35.8566 15.4959 35.4437C15.0919 35.0309 14.5441 34.7986 13.9726 34.7979H12.5248V33.3276C12.5241 32.744 12.2967 32.1845 11.8924 31.7719C11.4882 31.3594 10.9402 31.1274 10.3687 31.1271ZM13.9685 36.3581C14.136 36.3585 14.2965 36.4267 14.4149 36.5478C14.5332 36.6689 14.5996 36.8329 14.5996 37.004V38.2488C14.5996 38.4198 14.5331 38.5837 14.4148 38.7046C14.2964 38.8255 14.1359 38.8934 13.9685 38.8934H11.7623C11.5603 38.8937 11.3667 38.9759 11.224 39.1219C11.0813 39.2679 11.0012 39.4658 11.0012 39.6721V41.9238C11.0008 42.095 10.9341 42.2591 10.8156 42.3802C10.697 42.5012 10.5364 42.5694 10.3687 42.5697H9.14986C8.98235 42.5694 8.82183 42.5012 8.70351 42.3801C8.5852 42.259 8.51875 42.0949 8.51875 41.9238V39.6679C8.51875 39.4614 8.43842 39.2633 8.29542 39.1173C8.15243 38.9713 7.95849 38.8892 7.75627 38.8892H5.5528C5.38529 38.8892 5.22463 38.8214 5.10606 38.7005C4.98748 38.5797 4.92069 38.4158 4.92033 38.2447V36.9999C4.92069 36.8287 4.98744 36.6646 5.10597 36.5435C5.22451 36.4225 5.38517 36.3543 5.5528 36.3539H7.76033C7.86039 36.3541 7.95951 36.3341 8.05201 36.2952C8.14451 36.2562 8.22858 36.199 8.2994 36.1268C8.37022 36.0546 8.4264 35.9688 8.46474 35.8744C8.50307 35.78 8.52281 35.6788 8.52281 35.5766V33.3276C8.52281 33.1567 8.5893 32.9928 8.70765 32.8719C8.82601 32.751 8.98654 32.6831 9.15392 32.6831H10.3728C10.5403 32.6831 10.701 32.751 10.8195 32.8718C10.9381 32.9926 11.0049 33.1566 11.0053 33.3276V35.5808C11.0053 35.7869 11.0855 35.9846 11.2282 36.1304C11.3709 36.2762 11.5645 36.3581 11.7664 36.3581H13.9685Z" fill="black"/>
<path d="M39.6991 34.2961C39.6991 33.6698 39.5172 33.0577 39.1765 32.537C38.8358 32.0163 38.3516 31.6105 37.7851 31.3709C37.2185 31.1313 36.5952 31.0687 35.9938 31.191C35.3924 31.3133 34.84 31.6149 34.4065 32.0579C33.973 32.5008 33.6779 33.065 33.5584 33.6793C33.439 34.2935 33.5005 34.9301 33.7354 35.5086C33.9702 36.0871 34.3678 36.5815 34.8778 36.9292C35.3877 37.2769 35.9872 37.4623 36.6004 37.4621C37.4222 37.4613 38.2102 37.1275 38.7912 36.5339C39.3722 35.9402 39.6987 35.1354 39.6991 34.2961ZM35.024 34.2961C35.024 33.9776 35.1165 33.6663 35.2897 33.4015C35.463 33.1367 35.7093 32.9303 35.9974 32.8085C36.2856 32.6867 36.6026 32.6549 36.9084 32.7171C37.2143 32.7794 37.4952 32.9328 37.7156 33.1581C37.936 33.3834 38.086 33.6704 38.1467 33.9828C38.2074 34.2952 38.176 34.619 38.0564 34.9131C37.9369 35.2073 37.7347 35.4586 37.4752 35.6354C37.2158 35.8121 36.9109 35.9063 36.599 35.906C36.1813 35.9053 35.7809 35.7354 35.4856 35.4336C35.1904 35.1318 35.0243 34.7227 35.024 34.2961Z" fill="black"/>
<path d="M29.5039 40.3815C29.5036 41.0077 29.6852 41.62 30.0257 42.1408C30.3662 42.6616 30.8502 43.0676 31.4167 43.3075C31.9831 43.5473 32.6065 43.6102 33.2079 43.4882C33.8093 43.3662 34.3618 43.0648 34.7955 42.622C35.2292 42.1793 35.5246 41.6152 35.6443 41.001C35.764 40.3868 35.7027 39.7502 35.4681 39.1716C35.2335 38.593 34.8362 38.0985 34.3264 37.7505C33.8165 37.4026 33.2171 37.2169 32.6039 37.2169C31.7823 37.218 30.9946 37.5517 30.4135 38.1449C29.8325 38.7381 29.5053 39.5424 29.5039 40.3815ZM34.1804 40.3815C34.1806 40.7 34.0884 41.0114 33.9153 41.2763C33.7423 41.5412 33.4962 41.7478 33.2081 41.8699C32.9201 41.9919 32.6031 42.024 32.2972 41.9621C31.9913 41.9001 31.7103 41.7469 31.4897 41.5218C31.2691 41.2967 31.1188 41.0098 31.0579 40.6975C30.997 40.3851 31.0281 40.0613 31.1474 39.7671C31.2667 39.4728 31.4687 39.2213 31.728 39.0443C31.9872 38.8673 32.2921 38.7729 32.6039 38.7729C33.0217 38.7733 33.4222 38.9428 33.7178 39.2444C34.0133 39.5459 34.1796 39.9548 34.1804 40.3815Z" fill="black"/>
<path d="M23.511 39.5838C23.7738 39.5908 24.0354 39.544 24.2802 39.4462C24.5251 39.3483 24.7483 39.2014 24.9366 39.014C25.125 38.8266 25.2747 38.6026 25.3769 38.3552C25.4791 38.1078 25.5318 37.8419 25.5318 37.5734C25.5318 37.3049 25.4791 37.039 25.3769 36.7916C25.2747 36.5442 25.125 36.3202 24.9366 36.1328C24.7483 35.9454 24.5251 35.7985 24.2802 35.7006C24.0354 35.6028 23.7738 35.556 23.511 35.563H20.7278C20.465 35.556 20.2034 35.6028 19.9586 35.7006C19.7137 35.7985 19.4905 35.9454 19.3022 36.1328C19.1138 36.3202 18.9641 36.5442 18.8619 36.7916C18.7597 37.039 18.707 37.3049 18.707 37.5734C18.707 37.8419 18.7597 38.1078 18.8619 38.3552C18.9641 38.6026 19.1138 38.8266 19.3022 39.014C19.4905 39.2014 19.7137 39.3483 19.9586 39.4462C20.2034 39.544 20.465 39.5908 20.7278 39.5838H23.511ZM20.2823 37.5741C20.2823 37.4534 20.3292 37.3377 20.4128 37.2523C20.4963 37.167 20.6097 37.119 20.7278 37.119H23.5096C23.5701 37.1156 23.6306 37.1248 23.6875 37.1461C23.7444 37.1674 23.7964 37.2004 23.8404 37.2429C23.8844 37.2854 23.9195 37.3366 23.9434 37.3935C23.9674 37.4503 23.9797 37.5115 23.9797 37.5734C23.9797 37.6353 23.9674 37.6965 23.9434 37.7533C23.9195 37.8101 23.8844 37.8614 23.8404 37.9039C23.7964 37.9464 23.7444 37.9794 23.6875 38.0006C23.6306 38.0219 23.5701 38.0312 23.5096 38.0278H20.7278C20.6694 38.0279 20.6115 38.0163 20.5574 37.9936C20.5034 37.9709 20.4543 37.9375 20.4129 37.8954C20.3715 37.8532 20.3386 37.8032 20.3162 37.748C20.2938 37.6929 20.2823 37.6338 20.2823 37.5741Z" fill="black"/>
</svg>
