<svg width="96" height="96" viewBox="0 0 96 96" fill="none" xmlns="http://www.w3.org/2000/svg">
<path d="M64.4249 35.9092L60.0909 31.5752L83.9627 7.70339C84.2387 7.42693 84.5665 7.20761 84.9274 7.05796C85.2883 6.90832 85.6751 6.8313 86.0658 6.8313C86.4564 6.8313 86.8433 6.90832 87.2042 7.05796C87.565 7.20761 87.8929 7.42693 88.1689 7.70339L88.2967 7.83113C88.5731 8.10717 88.7924 8.435 88.9421 8.79588C89.0917 9.15675 89.1688 9.54359 89.1688 9.93426C89.1688 10.3249 89.0917 10.7118 88.9421 11.0726C88.7924 11.4335 88.5731 11.7614 88.2967 12.0374L64.4249 35.9092Z" fill="#464646"/>
<path d="M83.9795 12.013C76.3824 4.4139 69.3845 -0.906387 68.3493 0.128738C67.3142 1.16386 72.6364 8.16177 80.2336 15.759C87.8308 23.3561 94.8305 28.6783 95.8638 27.6432C96.897 26.608 91.5786 19.6101 83.9795 12.013Z" fill="#B4AAAA"/>
<path d="M31.5751 35.9092L35.9091 31.5752L12.0373 7.70339C11.7613 7.42693 11.4334 7.20761 11.0726 7.05796C10.7117 6.90832 10.3248 6.8313 9.93417 6.8313C9.5435 6.8313 9.15666 6.90832 8.79579 7.05796C8.43491 7.20761 8.10707 7.42693 7.83104 7.70339L7.70329 7.83113C7.14587 8.38911 6.83276 9.14556 6.83276 9.93426C6.83276 10.723 7.14587 11.4794 7.70329 12.0374L31.5751 35.9092Z" fill="#464646"/>
<path d="M27.6431 0.12874C26.608 -0.906386 19.6101 4.4139 12.0129 12.0111C4.41574 19.6083 -0.906424 26.6062 0.128702 27.6432C1.16383 28.6802 8.16173 23.3561 15.7589 15.759C23.3561 8.16177 28.6764 1.16199 27.6431 0.12874Z" fill="#B4AAAA"/>
<path d="M64.4249 60.0908L60.0909 64.4248L83.9627 88.2966C84.2387 88.573 84.5665 88.7924 84.9274 88.942C85.2883 89.0917 85.6751 89.1687 86.0658 89.1687C86.4564 89.1687 86.8433 89.0917 87.2042 88.942C87.565 88.7924 87.8929 88.573 88.1689 88.2966L88.2967 88.1688C88.5731 87.8928 88.7924 87.565 88.9421 87.2041C89.0917 86.8432 89.1688 86.4564 89.1688 86.0657C89.1688 85.675 89.0917 85.2882 88.9421 84.9273C88.7924 84.5665 88.5731 84.2386 88.2967 83.9626L64.4249 60.0908Z" fill="#464646"/>
<path d="M95.8713 68.3568C94.8362 67.3236 87.8383 72.6439 80.2411 80.241C72.6439 87.8382 67.3217 94.838 68.3569 95.8713C69.392 96.9045 76.3899 91.5861 83.9871 83.9889C91.5843 76.3917 96.9064 69.3938 95.8713 68.3568Z" fill="#B4AAAA"/>
<path d="M31.5751 60.0908L35.9091 64.4248L12.0373 88.2966C11.7613 88.573 11.4334 88.7924 11.0726 88.942C10.7117 89.0917 10.3248 89.1687 9.93417 89.1687C9.5435 89.1687 9.15666 89.0917 8.79579 88.942C8.43491 88.7924 8.10707 88.573 7.83104 88.2966L7.70329 88.1688C7.14587 87.6109 6.83276 86.8544 6.83276 86.0657C6.83276 85.277 7.14587 84.5206 7.70329 83.9626L31.5751 60.0908Z" fill="#464646"/>
<path d="M15.757 80.241C8.15986 72.6439 1.16196 67.3236 0.12871 68.3568C-0.904537 69.3901 4.41387 76.3899 12.0111 83.987C19.6082 91.5842 26.6061 96.9064 27.6413 95.8713C28.6764 94.8361 23.3561 87.8382 15.757 80.241Z" fill="#B4AAAA"/>
<path d="M58.898 18.3816H37.1058C35.4714 18.3842 33.8956 18.9912 32.6818 20.0857C31.4679 21.1803 30.7017 22.6851 30.5306 24.3106C29.2564 36.2267 28.9461 48.2263 29.6026 60.1924C29.8365 64.9176 31.8783 69.372 35.3053 72.6336C38.7323 75.8951 43.2822 77.7142 48.0132 77.7142C52.7442 77.7142 57.2941 75.8951 60.7211 72.6336C64.1481 69.372 66.1899 64.9176 66.4238 60.1924C67.0794 48.2263 66.769 36.2268 65.4957 24.3106C65.3246 22.6851 64.5584 21.1803 63.3446 20.0857C62.1307 18.9912 60.555 18.3842 58.9205 18.3816H58.898Z" fill="#3567C3"/>
<path d="M65.4769 24.3106C65.3062 22.6849 64.5401 21.1799 63.3262 20.0852C62.1122 18.9906 60.5362 18.3838 58.9016 18.3816H51.9507C53.5853 18.3838 55.1613 18.9906 56.3752 20.0852C57.5892 21.1799 58.3552 22.6849 58.5259 24.3106C59.8011 36.2267 60.1114 48.2263 59.454 60.1924C59.228 64.2987 57.636 68.2116 54.9309 71.3091C52.2258 74.4067 48.5629 76.5111 44.5245 77.288C47.1073 77.7825 49.766 77.7189 52.3222 77.1013C54.8784 76.4838 57.2729 75.3266 59.3451 73.7074C61.4172 72.0883 63.1191 70.0446 64.3364 67.7136C65.5537 65.3826 66.2584 62.8182 66.403 60.1924C67.0605 48.2263 66.7501 36.2267 65.475 24.3106H65.4769Z" fill="#2D56A1"/>
<path d="M58.603 18.3816H37.3895V17.2845C37.3895 16.6537 37.5137 16.0292 37.7552 15.4465C37.9966 14.8638 38.3504 14.3343 38.7965 13.8884C39.2426 13.4425 39.7722 13.0889 40.355 12.8476C40.9378 12.6064 41.5624 12.4824 42.1931 12.4827H53.7937C54.4249 12.4817 55.0501 12.6052 55.6335 12.846C56.217 13.0869 56.7472 13.4404 57.1939 13.8864C57.6406 14.3324 57.995 14.8621 58.2367 15.4452C58.4785 16.0282 58.603 16.6532 58.603 17.2845V18.3816Z" fill="#464646"/>
<path d="M54.1093 12.4901H50.0383C51.2306 12.4901 52.374 12.9637 53.2171 13.8068C54.0602 14.6499 54.5338 15.7934 54.5338 16.9857V18.3815H58.6029V16.9857C58.6029 15.7937 58.1296 14.6505 57.2869 13.8075C56.4442 12.9645 55.3012 12.4906 54.1093 12.4901Z" fill="#333333"/>
<path d="M35.8997 60.5568C36.2467 60.7223 36.6453 60.7433 37.0078 60.6151C37.3703 60.4868 37.6671 60.2199 37.8328 59.8729C38.7506 57.9545 40.1924 56.3348 41.9917 55.201C43.7909 54.0673 45.8742 53.4656 48.0009 53.4656C50.1276 53.4656 52.2109 54.0673 54.0101 55.201C55.8094 56.3348 57.2512 57.9545 58.169 59.8729C58.2473 60.0501 58.3605 60.2098 58.5016 60.3424C58.6428 60.4751 58.8092 60.5781 58.9908 60.6454C59.1725 60.7126 59.3659 60.7428 59.5594 60.734C59.7529 60.7252 59.9427 60.6776 60.1176 60.5942C60.2924 60.5107 60.4487 60.393 60.5773 60.2481C60.7058 60.1031 60.804 59.9339 60.8659 59.7503C60.9279 59.5667 60.9524 59.3726 60.938 59.1794C60.9236 58.9862 60.8706 58.7979 60.7822 58.6255C59.6308 56.2111 57.8192 54.1722 55.5571 52.7447C53.295 51.3173 50.6748 50.5597 47.9999 50.5597C45.3251 50.5597 42.7049 51.3173 40.4428 52.7447C38.1807 54.1722 36.3691 56.2111 35.2177 58.6255C35.0521 58.9721 35.0309 59.3702 35.1588 59.7324C35.2867 60.0945 35.5532 60.3911 35.8997 60.5568Z" fill="#72D1FB"/>
<path d="M58.3099 30.4048C58.6941 30.4048 59.0625 30.2522 59.3341 29.9805C59.6057 29.7089 59.7584 29.3405 59.7584 28.9564C59.7584 28.5722 59.6057 28.2038 59.3341 27.9322C59.0625 27.6605 58.6941 27.5079 58.3099 27.5079H37.6919C37.3078 27.5079 36.9394 27.6605 36.6678 27.9322C36.3961 28.2038 36.2435 28.5722 36.2435 28.9564C36.2435 29.3405 36.3961 29.7089 36.6678 29.9805C36.9394 30.2522 37.3078 30.4048 37.6919 30.4048H58.3099Z" fill="#72D1FB"/>
</svg>
