<svg width="50" height="52" viewBox="0 0 50 52" fill="none" xmlns="http://www.w3.org/2000/svg">
<path d="M22.3385 3.47989C22.3851 3.97838 22.6087 4.44095 22.9655 4.7774C23.3224 5.11386 23.787 5.30008 24.2687 5.29974H24.3326C26.7165 5.21655 29.0915 5.64412 31.3098 6.55587C33.528 7.46761 35.5421 8.84403 37.2269 10.5995C38.2337 11.6465 39.1137 12.8174 39.8474 14.0863L38.7507 14.2135C38.3302 14.2629 37.9295 14.4264 37.5889 14.6876C37.2483 14.9488 36.9797 15.2985 36.8102 15.7016C36.6406 16.1048 36.576 16.5472 36.6229 16.9845C36.6697 17.4218 36.8264 17.8386 37.0771 18.1931L37.8013 19.2154C37.9221 19.3605 38.0912 19.4527 38.2747 19.4737C38.4582 19.4946 38.6426 19.4427 38.7908 19.3283C38.939 19.2139 39.0402 19.0455 39.0741 18.8569C39.108 18.6682 39.072 18.4732 38.9735 18.3109L38.2506 17.29C38.1521 17.1513 38.0903 16.9881 38.0715 16.8167C38.0526 16.6454 38.0774 16.4719 38.1434 16.3137C38.2093 16.1555 38.3141 16.018 38.4472 15.9151C38.5803 15.8122 38.7371 15.7475 38.9018 15.7274L41.0939 15.4728C41.2121 15.4593 41.3254 15.416 41.4239 15.3466C41.5225 15.2773 41.6033 15.1841 41.6593 15.075C41.7154 14.9659 41.745 14.8443 41.7457 14.7206C41.7463 14.5969 41.7179 14.4749 41.663 14.3652C40.0212 11.0726 37.5163 8.33058 34.4381 6.45624C31.3599 4.5819 27.8342 3.65186 24.2687 3.77372C24.1487 3.77949 24.0311 3.73699 23.9404 3.65506C23.8497 3.57312 23.7929 3.45802 23.7816 3.33365L23.6657 2.07166C23.6598 2.0054 23.6668 1.93857 23.6866 1.87525C23.7063 1.81193 23.7382 1.75344 23.7803 1.70336C23.8221 1.65401 23.873 1.61403 23.9301 1.58586C23.9872 1.55769 24.0493 1.54192 24.1124 1.53951C28.3227 1.38265 32.4817 2.54093 36.0527 4.86493C39.6237 7.18893 42.443 10.572 44.1468 14.5778C44.2093 14.7266 44.316 14.8506 44.4512 14.9318C44.5865 15.0129 44.7432 15.0469 44.8983 15.0287L47.4629 14.7321C47.6281 14.7124 47.7953 14.7384 47.9478 14.8074C48.1002 14.8765 48.2324 14.9861 48.331 15.1253C48.4296 15.2645 48.4911 15.4283 48.5092 15.6001C48.5274 15.7719 48.5017 15.9457 48.4345 16.1038L44.9843 24.3067C44.918 24.4652 44.8126 24.6028 44.6788 24.7055C44.5451 24.8081 44.3876 24.8723 44.2224 24.8915C44.0571 24.9108 43.8899 24.8844 43.7376 24.815C43.5853 24.7456 43.4533 24.6356 43.3549 24.4963L40.6979 20.7496C40.5795 20.5961 40.4087 20.4961 40.221 20.4706C40.0334 20.445 39.8435 20.4959 39.6911 20.6126C39.5387 20.7292 39.4356 20.9026 39.4033 21.0964C39.371 21.2903 39.4121 21.4896 39.5179 21.6528L42.1749 25.3994C42.3965 25.7168 42.6874 25.975 43.0236 26.1527C43.3598 26.3304 43.7318 26.4226 44.1091 26.4218C44.2002 26.4218 44.2927 26.4218 44.3852 26.4055C44.8069 26.3588 45.2091 26.1963 45.5504 25.9345C45.8917 25.6727 46.1598 25.3212 46.3271 24.916L49.7773 16.7131C49.947 16.3102 50.0117 15.8679 49.9649 15.4307C49.9181 14.9935 49.7614 14.5768 49.5106 14.2225C49.2599 13.8682 48.9238 13.5887 48.5362 13.4122C48.1486 13.2357 47.7232 13.1684 47.3027 13.2169L45.2669 13.4526C43.3903 9.29672 40.3789 5.80679 36.608 3.41757C32.8371 1.02834 28.4733 -0.154578 24.0603 0.0161948C23.7975 0.0265825 23.5395 0.0926321 23.3021 0.210296C23.0646 0.32796 22.8528 0.494763 22.6795 0.700495C22.5063 0.906227 22.3752 1.14656 22.2944 1.40677C22.2136 1.66699 22.1847 1.94162 22.2096 2.21384L22.3385 3.47989Z" fill="black"/>
<path d="M27.6591 48.5241C27.6111 48.0142 27.3783 47.5425 27.008 47.2045C26.6376 46.8666 26.1575 46.6877 25.665 46.7042C22.5616 46.8038 19.4887 46.0422 16.7622 44.498C14.0357 42.9538 11.7539 40.6825 10.1515 37.9177L11.2468 37.7904C11.6677 37.7417 12.0688 37.5786 12.4098 37.3176C12.7509 37.0565 13.0198 36.7068 13.1895 36.3034C13.3593 35.9001 13.4239 35.4574 13.3769 35.0198C13.3299 34.5823 13.173 34.1653 12.9218 33.8109L7.80705 26.6018C7.55608 26.247 7.21963 25.9673 6.83156 25.7907C6.4435 25.6141 6.01753 25.5469 5.59654 25.5959C5.17556 25.6449 4.77444 25.8084 4.43356 26.0698C4.09268 26.3313 3.82408 26.6815 3.65482 27.0852L0.20461 35.2881C0.035033 35.6912 -0.0295771 36.1335 0.0172702 36.5707C0.0641174 37.0079 0.220774 37.4246 0.471508 37.779C0.722242 38.1334 1.05823 38.413 1.44575 38.5897C1.83327 38.7663 2.25868 38.8339 2.67928 38.7857L4.71241 38.5487C4.83397 38.8195 4.96118 39.0876 5.09403 39.353C5.18332 39.5326 5.33757 39.6679 5.52284 39.7292C5.70811 39.7906 5.90923 39.7729 6.08194 39.68C6.25466 39.5872 6.38483 39.4268 6.44382 39.2342C6.50281 39.0416 6.48578 38.8325 6.39649 38.653C6.1946 38.2468 6.00575 37.8405 5.83253 37.4262C5.76986 37.2772 5.66299 37.1529 5.52754 37.0716C5.3921 36.9902 5.23518 36.956 5.0797 36.9739L2.51777 37.2718C2.35243 37.2915 2.18502 37.2655 2.03245 37.1964C1.87988 37.1273 1.74756 37.0175 1.64885 36.8782C1.55015 36.7389 1.48855 36.575 1.47028 36.4031C1.45202 36.2311 1.47773 36.0572 1.54483 35.8988L4.99504 27.6959C5.06137 27.5374 5.16674 27.3999 5.30051 27.2972C5.43428 27.1945 5.59173 27.1303 5.75698 27.1111C5.92223 27.0919 6.08944 27.1183 6.24173 27.1877C6.39403 27.2571 6.52602 27.367 6.62442 27.5063L11.734 34.714C11.8326 34.8526 11.8944 35.0157 11.9133 35.187C11.9321 35.3583 11.9073 35.5317 11.8414 35.6898C11.7754 35.848 11.6706 35.9854 11.5374 36.0881C11.4043 36.1909 11.2475 36.2554 11.0827 36.2752L8.89069 36.5312C8.77256 36.5449 8.65942 36.5884 8.56106 36.6578C8.4627 36.7272 8.38207 36.8204 8.32615 36.9295C8.27024 37.0385 8.24071 37.1601 8.24013 37.2837C8.23955 37.4073 8.26794 37.5292 8.32282 37.6388C9.96494 40.931 12.4699 43.6727 15.5481 45.5467C18.6263 47.4208 22.1519 48.3507 25.7171 48.2289C25.8372 48.2231 25.9547 48.2656 26.0454 48.3476C26.1361 48.4295 26.193 48.5446 26.2042 48.669L26.3202 49.931C26.3261 49.9972 26.319 50.0641 26.2993 50.1274C26.2796 50.1907 26.2477 50.2492 26.2055 50.2993C26.1638 50.3486 26.1128 50.3886 26.0557 50.4168C25.9986 50.4449 25.9366 50.4607 25.8734 50.4631C22.9808 50.5763 20.097 50.0664 17.403 48.9654C14.7091 47.8643 12.2632 46.196 10.2192 44.0652C9.35956 43.1692 8.57522 42.1984 7.87478 41.1634C7.76145 41.0015 7.59138 40.8925 7.40135 40.8598C7.21132 40.8272 7.01657 40.8736 6.85918 40.989C6.70179 41.1045 6.5944 41.2796 6.56022 41.4767C6.52604 41.6738 6.56782 41.8769 6.67652 42.0422C7.4279 43.148 8.26887 44.1849 9.19026 45.1416C11.2749 47.3146 13.7513 49.0389 16.4777 50.2157C19.204 51.3925 22.1269 51.9989 25.0789 52C25.3603 52 25.6416 51.9946 25.9229 51.9837C26.1857 51.9731 26.4437 51.907 26.6811 51.7892C26.9185 51.6715 27.1304 51.5048 27.3037 51.2991C27.477 51.0934 27.6082 50.8532 27.6892 50.593C27.7703 50.3329 27.7995 50.0583 27.775 49.7861L27.6591 48.5241Z" fill="black"/>
<path d="M11.8628 24.6696C14.2091 24.6696 16.5027 23.9463 18.4535 22.5911C20.4044 21.2359 21.9248 19.3097 22.8227 17.0561C23.7205 14.8025 23.9553 12.3227 23.4975 9.93032C23.0397 7.53796 21.9097 5.34047 20.2506 3.61575C18.5914 1.89103 16.4775 0.716552 14.1763 0.240841C11.8751 -0.23487 9.4898 0.00955065 7.32218 0.943199C5.15457 1.87685 3.30195 3.45778 1.99861 5.48608C0.695266 7.51438 -0.000257536 9.89893 7.15335e-08 12.3382C0.00379223 15.6077 1.25488 18.7422 3.47879 21.054C5.70271 23.3657 8.71786 24.666 11.8628 24.6696ZM11.8628 1.52735C13.9192 1.52735 15.9293 2.16128 17.6392 3.34899C19.349 4.53669 20.6817 6.22482 21.4687 8.19991C22.2557 10.175 22.4617 12.3484 22.0606 14.4452C21.6595 16.542 20.6694 18.468 19.2154 19.9798C17.7614 21.4916 15.9089 22.5212 13.892 22.9384C11.8752 23.3557 9.78464 23.1418 7.88472 22.3239C5.9848 21.5059 4.36084 20.1207 3.21819 18.3432C2.07554 16.5658 1.46552 14.476 1.46526 12.3382C1.46802 9.47209 2.56431 6.72418 4.51359 4.69742C6.46286 2.67066 9.10591 1.53058 11.8628 1.52735Z" fill="black"/>
<path d="M11.8627 20.9121C13.4942 20.9121 15.089 20.4091 16.4454 19.4668C17.8019 18.5245 18.8592 17.1851 19.4834 15.6181C20.1077 14.0511 20.271 12.3269 19.9526 10.6634C19.6342 8.9999 18.8485 7.47194 17.6948 6.27272C16.5411 5.0735 15.0712 4.25689 13.4711 3.92616C11.871 3.59543 10.2124 3.76545 8.70526 4.4147C7.19808 5.06395 5.90993 6.16327 5.00374 7.57365C4.09754 8.98402 3.614 10.6421 3.61426 12.3382C3.61702 14.6115 4.48698 16.7908 6.0333 18.3982C7.57963 20.0055 9.67606 20.9096 11.8627 20.9121ZM11.8627 5.28488C13.2043 5.28488 14.5158 5.69847 15.6313 6.47335C16.7467 7.24822 17.6162 8.34959 18.1296 9.63816C18.643 10.9267 18.7773 12.3447 18.5156 13.7126C18.2538 15.0805 17.6078 16.3371 16.6592 17.3233C15.7105 18.3096 14.5019 18.9812 13.186 19.2533C11.8702 19.5254 10.5064 19.3857 9.2669 18.852C8.02743 18.3182 6.96804 17.4144 6.22269 16.2547C5.47735 15.095 5.07952 13.7316 5.07952 12.3368C5.08193 10.4673 5.79737 8.67507 7.06894 7.35311C8.34051 6.03116 10.0644 5.28738 11.8627 5.28488Z" fill="black"/>
<path d="M8.88267 16.552C9.73708 17.0314 10.3258 17.1817 11.0682 17.2291V17.6976C11.064 17.8003 11.0799 17.9028 11.1148 17.999C11.1498 18.0952 11.2031 18.1831 11.2715 18.2573C11.3399 18.3315 11.4221 18.3905 11.5131 18.4309C11.6041 18.4712 11.7019 18.492 11.8008 18.492C11.8997 18.492 11.9976 18.4712 12.0886 18.4309C12.1795 18.3905 12.2617 18.3315 12.3301 18.2573C12.3986 18.1831 12.4519 18.0952 12.4868 17.999C12.5218 17.9028 12.5376 17.8003 12.5335 17.6976V17.1736C14.0964 16.8824 15.0472 15.7003 15.2035 14.5345C15.3858 13.1804 14.5523 12.0119 13.074 11.565C12.1414 11.282 11.1073 10.9395 10.5094 10.5386C10.4095 10.4696 10.3321 10.3706 10.2874 10.2548C10.2427 10.139 10.233 10.0118 10.2594 9.89006C10.3141 9.54883 10.5837 9.13042 11.1711 8.97742C11.3913 8.92106 11.6165 8.88795 11.8432 8.87857H11.8549C12.3838 8.8496 12.9084 8.99149 13.3566 9.28479C13.5121 9.40617 13.7075 9.45838 13.9 9.42994C14.0925 9.4015 14.2662 9.29474 14.3829 9.13314C14.4997 8.97153 14.5499 8.76833 14.5226 8.56823C14.4952 8.36812 14.3925 8.18752 14.2371 8.06613C13.7273 7.70509 13.1418 7.47619 12.5295 7.39858V6.99236C12.5216 6.79591 12.4409 6.61026 12.3044 6.47419C12.1679 6.33812 11.986 6.26215 11.7969 6.26215C11.6078 6.26215 11.426 6.33812 11.2894 6.47419C11.1529 6.61026 11.0723 6.79591 11.0643 6.99236V7.44597C10.9835 7.46357 10.9015 7.48118 10.8181 7.50149C9.76313 7.7723 8.97515 8.61453 8.80973 9.64226C8.73535 10.0572 8.78117 10.4859 8.9414 10.8737C9.10163 11.2616 9.36904 11.5913 9.70973 11.8209C10.3193 12.2272 11.1737 12.5806 12.6598 13.0301C13.4308 13.2644 13.832 13.7356 13.7486 14.326C13.6275 15.2264 12.6507 15.7179 11.795 15.722C10.8064 15.7288 10.4144 15.6909 9.58079 15.221C9.49612 15.1736 9.4033 15.144 9.30764 15.1339C9.21197 15.1238 9.11533 15.1334 9.02324 15.1621C8.93114 15.1909 8.84539 15.2382 8.77088 15.3014C8.69636 15.3646 8.63455 15.4424 8.58897 15.5304C8.54338 15.6184 8.51492 15.7149 8.50521 15.8144C8.4955 15.9138 8.50472 16.0143 8.53236 16.11C8.55999 16.2058 8.6055 16.2949 8.66628 16.3724C8.72705 16.4499 8.80191 16.5141 8.88657 16.5615L8.88267 16.552Z" fill="black"/>
<path d="M49.1988 29.6579C49.1691 29.4815 49.0804 29.3216 48.9484 29.2064C48.8164 29.0912 48.6496 29.0282 48.4772 29.0283H30.2923C30.12 29.0282 29.9532 29.0912 29.8212 29.2064C29.6892 29.3216 29.6005 29.4815 29.5708 29.6579C28.5028 35.9991 28.5028 42.4849 29.5708 48.8261C29.6005 49.0026 29.6891 49.1627 29.8211 49.2781C29.953 49.3935 30.1199 49.4569 30.2923 49.457H48.4772C48.6497 49.4569 48.8165 49.3935 48.9485 49.2781C49.0805 49.1627 49.1691 49.0026 49.1988 48.8261C50.2668 42.4849 50.2668 35.9991 49.1988 29.6579ZM41.5899 30.5503V37.8622L39.7755 36.6733C39.6584 36.5972 39.523 36.5568 39.3848 36.5568C39.2466 36.5568 39.1112 36.5972 38.994 36.6733L37.1797 37.8622V30.5503H41.5899ZM47.8573 47.9378H30.9123C30.0098 42.1813 30.0098 36.3108 30.9123 30.5543H35.7145V39.2461C35.7146 39.3823 35.7498 39.516 35.8165 39.6333C35.8831 39.7506 35.9788 39.8472 36.0936 39.913C36.2084 39.9788 36.338 40.0115 36.469 40.0075C36.6 40.0036 36.7276 39.9632 36.8385 39.8906L39.3848 38.221L41.9311 39.8906C42.0484 39.9664 42.1837 40.0068 42.3218 40.007C42.5161 40.007 42.7024 39.9269 42.8399 39.7842C42.9774 39.6416 43.0548 39.448 43.0551 39.2461V30.5543H47.8573C48.7598 36.3108 48.7598 42.1813 47.8573 47.9378Z" fill="black"/>
</svg>
