<svg width="18" height="16" viewBox="0 0 18 16" fill="none" xmlns="http://www.w3.org/2000/svg">
<path d="M9.01562 1.20312L11.1562 5.67188L16.0469 6.39062L12.5156 9.92188L12.625 10.625L13.3438 14.8438L9.01562 12.5312L4.6875 14.8438L5.40625 10.625L5.51562 9.92188L1.98438 6.39062L6.85938 5.67188L7.1875 5L9.01562 1.20312ZM9.01562 0.25C8.78646 0.25 8.57812 0.307292 8.39062 0.421875C8.20312 0.536458 8.0625 0.692708 7.96875 0.890625L6.15625 4.65625L1.98438 5.26562C1.77604 5.29688 1.58854 5.38021 1.42188 5.51562C1.25521 5.65104 1.13542 5.82292 1.0625 6.03125C0.916667 6.45833 1.01042 6.83854 1.34375 7.17188L4.39062 10.2188L3.6875 14.4531C3.64583 14.6615 3.66667 14.8646 3.75 15.0625C3.84375 15.2604 3.97917 15.4219 4.15625 15.5469C4.1875 15.5677 4.21875 15.5885 4.25 15.6094C4.29167 15.6302 4.32812 15.6458 4.35938 15.6562C4.40104 15.6771 4.4375 15.6927 4.46875 15.7031C4.51042 15.7135 4.54688 15.724 4.57812 15.7344C4.61979 15.7448 4.66146 15.75 4.70312 15.75C4.74479 15.75 4.78646 15.75 4.82812 15.75C5.02604 15.75 5.20833 15.7031 5.375 15.6094L9.01562 13.6562L12.6406 15.6094C12.7344 15.6615 12.8281 15.6979 12.9219 15.7188C13.0156 15.7396 13.1094 15.75 13.2031 15.75C13.4531 15.75 13.6771 15.6823 13.875 15.5469C14.0521 15.4219 14.1823 15.2604 14.2656 15.0625C14.3594 14.8646 14.3854 14.6615 14.3438 14.4531L13.6406 10.2188L16.6875 7.17188C17.0208 6.83854 17.1146 6.45833 16.9688 6.03125C16.8958 5.82292 16.776 5.65104 16.6094 5.51562C16.4427 5.38021 16.2552 5.29688 16.0469 5.26562L11.875 4.65625L10.0625 0.890625C10.0417 0.838542 10.0156 0.791667 9.98438 0.75C9.95312 0.708333 9.91667 0.666667 9.875 0.625C9.84375 0.583333 9.80729 0.546875 9.76562 0.515625C9.72396 0.473958 9.67708 0.442708 9.625 0.421875C9.58333 0.390625 9.53646 0.364583 9.48438 0.34375C9.44271 0.322917 9.39583 0.307292 9.34375 0.296875C9.29167 0.276042 9.23438 0.265625 9.17188 0.265625C9.11979 0.255208 9.06771 0.25 9.01562 0.25Z" fill="#CDB010"/>
</svg>
