<svg width="125" height="25" viewBox="0 0 125 25" fill="none" xmlns="http://www.w3.org/2000/svg">
<path fill-rule="evenodd" clip-rule="evenodd" d="M121.027 12.7149C118.858 15.6009 117.204 18.8539 114.909 21.6279C114.632 21.6519 114.07 21.6919 113.793 21.7069C112.068 18.9659 115.012 16.2239 116.136 13.8259C110.081 16.0159 104.477 19.5249 98.1058 20.7489C97.8208 19.4379 97.4888 17.7109 98.8108 16.8399C100.884 15.8239 103.29 15.6009 105.245 14.3129C107.762 12.5709 110.754 11.7719 113.318 10.1169C111.244 10.0689 109.171 10.2289 107.105 10.0609C105.372 9.40593 105.783 6.74393 107.145 5.90393C109.78 5.56093 112.455 5.81593 115.099 5.64093C118.431 5.64093 121.842 4.00993 125 5.75993C124.588 8.52593 122.475 10.4769 121.027 12.7149ZM73.4678 24.8009C72.3678 23.4339 73.6818 21.1319 75.3988 21.2839C78.3428 21.0369 81.3268 21.0119 84.2158 20.3169C85.9178 20.0929 88.4268 18.8219 89.2178 21.1639C88.6248 23.1619 86.2498 23.1709 84.6198 23.7219C80.9708 24.4179 77.1558 25.3769 73.4678 24.8009ZM58.1608 24.2499C54.5998 24.2419 50.9348 24.1219 47.6108 22.7149C48.0218 21.6519 48.2598 20.3569 49.3838 19.7979C52.5728 19.9889 55.6998 20.8119 58.9048 20.7809C61.0338 20.9319 63.9618 20.0689 64.8488 22.7629C62.9888 24.3699 60.4478 24.1699 58.1608 24.2499ZM30.4598 19.3259C27.5628 18.3029 24.4608 17.5989 22.0468 15.5839C22.5608 14.6089 23.1628 12.7069 24.6578 13.3699C28.6158 15.0409 32.6998 16.3519 36.8148 17.5589C38.2868 17.8069 38.2868 20.2289 36.7838 20.5729C34.6068 20.7169 32.5098 19.9409 30.4598 19.3259ZM10.0158 10.5329C6.18579 8.53393 1.73779 6.33593 0.114786 2.01193C-0.589214 0.292932 2.14079 -0.802068 2.98779 0.731932C5.55979 4.24993 9.58079 6.02393 12.9688 8.54193C14.6388 10.4689 11.4088 11.7799 10.0158 10.5329Z" fill="#7828E6"/>
</svg>
