<svg width="120" height="75" viewBox="0 0 120 75" fill="none" xmlns="http://www.w3.org/2000/svg">
<path d="M96.0189 26.8328C91.2757 26.8328 86.639 28.2453 82.6953 30.8918C78.7515 33.5383 75.6778 37.2998 73.8628 41.7007C72.0478 46.1016 71.5731 50.9442 72.4986 55.616C73.4242 60.2878 75.7085 64.5791 79.0627 67.9472C82.4168 71.3152 86.6902 73.6087 91.3423 74.5376C95.9944 75.4665 100.816 74.9891 105.198 73.1658C109.58 71.3425 113.325 68.2552 115.96 64.2942C118.595 60.3333 120.001 55.6766 120 50.9132C120 47.7507 119.38 44.6191 118.175 41.6973C116.969 38.7755 115.203 36.1208 112.976 33.8847C110.749 31.6485 108.105 29.8748 105.196 28.6649C102.286 27.4549 99.168 26.8324 96.0189 26.8328ZM96.0189 68.8865C92.4786 68.8865 89.0178 67.8322 86.0741 65.8569C83.1305 63.8816 80.8362 61.0741 79.4814 57.7894C78.1266 54.5046 77.7721 50.8902 78.4628 47.4031C79.1535 43.916 80.8583 40.7129 83.3617 38.1989C85.865 35.6848 89.0545 33.9727 92.5267 33.2791C95.999 32.5855 99.5981 32.9415 102.869 34.3021C106.14 35.6627 108.935 37.9667 110.902 40.9229C112.869 43.8791 113.919 47.3547 113.919 50.9101C113.919 55.6777 112.033 60.2501 108.676 63.6213C105.319 66.9926 100.766 68.8865 96.0189 68.8865Z" fill="#365E7D"/>
<path d="M81.3124 61.1599C79.2331 58.1515 78.1188 54.5769 78.1188 50.9148C78.1188 47.2527 79.2331 43.6781 81.3124 40.6697C82.9974 37.0742 85.5412 33.9527 88.7176 31.5829C91.894 29.2132 95.6044 27.6688 99.5186 27.087C98.3596 26.9179 97.1899 26.8329 96.0187 26.8328C92.7219 26.8333 89.4606 27.5164 86.4385 28.8396C83.4164 30.1627 80.6984 32.0974 78.4543 34.5229C76.2102 36.9483 74.4882 39.8124 73.3958 42.9362C72.3034 46.0601 71.8641 49.3765 72.1053 52.6785C72.3465 55.9805 73.2631 59.1971 74.7978 62.1274C76.3324 65.0577 78.4522 67.6387 81.0248 69.7092C83.5974 71.7798 86.5674 73.2954 89.7494 74.1615C92.9314 75.0275 96.2571 75.2253 99.5186 74.7426C95.6044 74.1608 91.894 72.6164 88.7176 70.2466C85.5412 67.8769 82.9974 64.7554 81.3124 61.1599Z" fill="#294B64"/>
<path d="M23.9813 26.8328C19.2382 26.8328 14.6017 28.2452 10.658 30.8916C6.71429 33.5379 3.64056 37.2993 1.82547 41.7C0.0103898 46.1007 -0.464518 50.9431 0.460804 55.6149C1.38613 60.2866 3.67011 64.5779 7.02395 67.946C10.3778 71.3142 14.6508 73.6079 19.3028 74.5372C23.9547 75.4665 28.7765 74.9895 33.1585 73.1667C37.5405 71.3439 41.2859 68.257 43.9209 64.2965C46.556 60.336 47.9625 55.6797 47.9625 50.9164C47.9625 44.529 45.4359 38.4032 40.9386 33.8867C36.4412 29.3701 30.3415 26.8328 23.9813 26.8328ZM23.9813 68.8865C20.4404 68.8877 16.9788 67.8343 14.0342 65.8595C11.0896 63.8847 8.79435 61.0773 7.43876 57.7923C6.08318 54.5073 5.72818 50.8923 6.41866 47.4046C7.10913 43.9169 8.81406 40.7133 11.3178 38.1989C13.8215 35.6844 17.0116 33.9722 20.4844 33.2788C23.9573 32.5854 27.5569 32.9419 30.8279 34.3033C34.099 35.6646 36.8945 37.9697 38.8609 40.9269C40.8273 43.884 41.8762 47.3604 41.875 50.9164C41.875 55.684 39.9891 60.2564 36.6322 63.6276C33.2753 66.9988 28.7224 68.8928 23.975 68.8928L23.9813 68.8865Z" fill="#365E7D"/>
<path d="M9.27504 61.1599C7.19573 58.1515 6.08145 54.5769 6.08145 50.9148C6.08145 47.2527 7.19573 43.6781 9.27504 40.6697C10.96 37.0742 13.5039 33.9527 16.6802 31.5829C19.8566 29.2132 23.567 27.6688 27.4813 27.087C26.3222 26.9178 25.1525 26.8328 23.9813 26.8328C20.6845 26.8333 17.4232 27.5164 14.4011 28.8396C11.379 30.1627 8.66106 32.0974 6.41695 34.5229C4.17285 36.9483 2.45082 39.8124 1.35842 42.9362C0.26602 46.0601 -0.173278 49.3765 0.0679452 52.6785C0.309169 55.9805 1.22574 59.1971 2.76042 62.1274C4.29509 65.0577 6.4149 67.6387 8.98745 69.7092C11.56 71.7798 14.53 73.2954 17.712 74.1615C20.8941 75.0275 24.2197 75.2253 27.4813 74.7426C23.567 74.1608 19.8566 72.6164 16.6802 70.2466C13.5039 67.8769 10.96 64.7554 9.27504 61.1599Z" fill="#294B64"/>
<path d="M96.0187 70.7099C92.1198 70.7099 88.3084 69.5487 85.0667 67.3733C81.8249 65.1979 79.2983 62.1059 77.8064 58.4883C76.3145 54.8708 75.9243 50.8902 76.6852 47.0499C77.446 43.2097 79.3238 39.6823 82.0809 36.9138C84.8381 34.1453 88.3508 32.2601 92.1749 31.4966C95.9989 30.7331 99.9625 31.1256 103.564 32.6244C107.166 34.1233 110.245 36.6611 112.411 39.9171C114.576 43.173 115.732 47.0008 115.731 50.9164C115.725 56.1644 113.645 61.1956 109.95 64.9062C106.255 68.6169 101.244 70.704 96.0187 70.7099ZM96.0187 34.7571C92.8362 34.7571 89.7253 35.7048 87.0792 37.4804C84.4331 39.256 82.3707 41.7797 81.1529 44.7325C79.935 47.6852 79.6164 50.9343 80.2372 54.0689C80.8581 57.2035 82.3906 60.0828 84.6409 62.3427C86.8912 64.6026 89.7583 66.1417 92.8795 66.7652C96.0008 67.3887 99.2361 67.0687 102.176 65.8456C105.116 64.6225 107.629 62.5514 109.398 59.894C111.166 57.2366 112.109 54.1124 112.109 50.9164C112.104 46.6322 110.407 42.5249 107.391 39.4955C104.374 36.4661 100.285 34.762 96.0187 34.7571Z" fill="#DBEDFF"/>
<path d="M23.9813 70.7099C20.0824 70.7099 16.2711 69.5487 13.0293 67.3733C9.78754 65.1979 7.26093 62.1059 5.76903 58.4883C4.27712 54.8708 3.88694 50.8902 4.64781 47.0499C5.40867 43.2097 7.28641 39.6823 10.0436 36.9138C12.8007 34.1453 16.3134 32.2601 20.1375 31.4966C23.9616 30.7331 27.9252 31.1256 31.5271 32.6244C35.1291 34.1233 38.2075 36.6611 40.3732 39.9171C42.5388 43.173 43.6944 47.0008 43.6938 50.9164C43.6872 56.1644 41.6081 61.1956 37.9127 64.9062C34.2172 68.6169 29.2071 70.704 23.9813 70.7099ZM23.9813 34.7571C20.7989 34.7571 17.6879 35.7048 15.0418 37.4804C12.3957 39.256 10.3334 41.7797 9.11551 44.7325C7.89764 47.6852 7.579 50.9343 8.19986 54.0689C8.82072 57.2035 10.3532 60.0828 12.6035 62.3427C14.8538 64.6026 17.7209 66.1417 20.8422 66.7652C23.9635 67.3887 27.1988 67.0687 30.1389 65.8456C33.0791 64.6225 35.5921 62.5514 37.3602 59.894C39.1282 57.2366 40.0719 54.1124 40.0719 50.9164C40.067 46.6322 38.3701 42.5249 35.3536 39.4955C32.3371 36.4661 28.2473 34.762 23.9813 34.7571Z" fill="#DBEDFF"/>
<path d="M94.1032 9.41502H79.9063C79.6622 9.42521 79.4185 9.38571 79.1899 9.29891C78.9614 9.2121 78.7526 9.07978 78.5763 8.9099C78.4 8.74002 78.2596 8.53608 78.1638 8.31035C78.0679 8.08462 78.0186 7.84175 78.0186 7.59635C78.0186 7.35096 78.0679 7.1081 78.1638 6.88236C78.2596 6.65663 78.4 6.4527 78.5763 6.28282C78.7526 6.11293 78.9614 5.9806 79.1899 5.8938C79.4185 5.807 79.6622 5.76751 79.9063 5.77769H94.1032C94.3473 5.76751 94.591 5.807 94.8195 5.8938C95.0481 5.9806 95.2568 6.11293 95.4332 6.28282C95.6095 6.4527 95.7498 6.65663 95.8456 6.88236C95.9415 7.1081 95.9909 7.35096 95.9909 7.59635C95.9909 7.84175 95.9415 8.08462 95.8456 8.31035C95.7498 8.53608 95.6095 8.74002 95.4332 8.9099C95.2568 9.07978 95.0481 9.2121 94.8195 9.29891C94.591 9.38571 94.3473 9.42521 94.1032 9.41502Z" fill="#DBEDFF"/>
<path d="M97.3157 21.5918H95.1125C94.7065 21.6182 94.2993 21.5608 93.9163 21.4229C93.5332 21.2851 93.1824 21.0698 92.8855 20.7903C92.5885 20.5109 92.3519 20.1732 92.1901 19.7983C92.0283 19.4233 91.9448 19.019 91.9448 18.6104C91.9448 18.2017 92.0283 17.7974 92.1901 17.4224C92.3519 17.0475 92.5885 16.7098 92.8855 16.4304C93.1824 16.1509 93.5332 15.9356 93.9163 15.7978C94.2993 15.6599 94.7065 15.6025 95.1125 15.6289H97.3157C97.9825 15.6289 98.6219 15.3629 99.0934 14.8894C99.5649 14.4159 99.8297 13.7738 99.8297 13.1041C99.8297 12.4345 99.5649 11.7923 99.0934 11.3188C98.6219 10.8454 97.9825 10.5793 97.3157 10.5793C96.9096 10.6058 96.5025 10.5484 96.1194 10.4105C95.7363 10.2727 95.3855 10.0574 95.0886 9.77791C94.7917 9.49846 94.555 9.16082 94.3932 8.78586C94.2314 8.41089 94.1479 8.00658 94.1479 7.59793C94.1479 7.18927 94.2314 6.78496 94.3932 6.41C94.555 6.03503 94.7917 5.69739 95.0886 5.41795C95.3855 5.1385 95.7363 4.9232 96.1194 4.78535C96.5025 4.6475 96.9096 4.59003 97.3157 4.61651C99.5315 4.65927 101.642 5.57329 103.194 7.16214C104.746 8.75099 105.616 10.8879 105.616 13.1136C105.616 15.3393 104.746 17.4761 103.194 19.065C101.642 20.6538 99.5315 21.5678 97.3157 21.6106V21.5918Z" fill="#477B9E"/>
<path d="M97.3156 18.0141H95.1125C94.6503 18.0148 94.1945 17.9068 93.7815 17.6986C93.3685 17.4904 93.0098 17.1878 92.7343 16.8152C92.3462 17.3301 92.1365 17.9584 92.1375 18.6041C92.1375 19.3965 92.4509 20.1564 93.0088 20.7167C93.5667 21.277 94.3234 21.5918 95.1125 21.5918H97.3156C99.5589 21.5893 101.71 20.693 103.296 19.0997C104.882 17.5063 105.773 15.3461 105.775 13.0932C105.775 12.492 105.712 11.8924 105.587 11.3043C105.178 13.2028 104.134 14.9035 102.63 16.1241C101.125 17.3446 99.2498 18.0115 97.3156 18.0141Z" fill="#365E7D"/>
<path d="M96.5061 47.0281L81.5999 6.94838C81.5168 6.7248 81.3907 6.51984 81.2287 6.34522C81.0667 6.17059 80.8721 6.02972 80.6559 5.93064C80.4397 5.83155 80.2062 5.7762 79.9687 5.76774C79.7312 5.75929 79.4944 5.79788 79.2718 5.88134C79.0491 5.9648 78.8451 6.09148 78.6712 6.25414C78.4973 6.41681 78.357 6.61227 78.2584 6.82938C78.1597 7.04649 78.1046 7.281 78.0962 7.5195C78.0877 7.758 78.1262 7.99582 78.2093 8.21941L80.0437 13.1591H43.1249L41.3937 8.49871C41.2149 8.06144 40.8737 7.71117 40.4423 7.52202C40.0109 7.33286 39.5232 7.31965 39.0823 7.48518C38.6414 7.65071 38.2819 7.982 38.0799 8.40896C37.8779 8.83592 37.8492 9.32506 37.9999 9.77289L39.8968 14.8727L23.4374 47.9539C23.2574 48.318 23.2039 48.7321 23.2855 49.1302C23.367 49.5283 23.5789 49.8876 23.8874 50.1507C23.7607 50.4278 23.7054 50.7323 23.7265 51.0365C23.7475 51.3406 23.8443 51.6345 24.0079 51.8913C24.1715 52.1481 24.3967 52.3595 24.6629 52.5061C24.929 52.6527 25.2276 52.7299 25.5312 52.7305H50.1562C50.6234 52.711 51.0651 52.5108 51.3889 52.1719C51.7126 51.8329 51.8934 51.3814 51.8934 50.9118C51.8934 50.4421 51.7126 49.9906 51.3889 49.6517C51.0651 49.3128 50.6234 49.1126 50.1562 49.0931H26.9093L41.6187 19.5268L51.6718 46.5636C51.801 46.9109 52.0327 47.2103 52.3359 47.4217C52.6392 47.6332 52.9995 47.7466 53.3687 47.7468C53.5822 47.7459 53.7939 47.7065 53.9937 47.6307C54.4436 47.4614 54.8084 47.12 55.0081 46.6811C55.2078 46.2423 55.2262 45.7419 55.0593 45.2895L44.4593 16.7933H81.3905L81.8468 18.0142L57.1437 45.506C56.9081 45.7668 56.753 46.0908 56.6974 46.4385C56.6418 46.7862 56.6879 47.1427 56.8303 47.4645C56.9726 47.7863 57.205 48.0597 57.4992 48.2513C57.7934 48.4429 58.1367 48.5446 58.4874 48.5439C58.7408 48.545 58.9916 48.4921 59.2233 48.3888C59.4549 48.2855 59.6621 48.1341 59.8312 47.9445L83.2686 21.8649L93.1249 48.3022C93.2027 48.5333 93.3259 48.7464 93.4872 48.9287C93.6486 49.111 93.8447 49.2589 94.0641 49.3636C94.2835 49.4683 94.5216 49.5276 94.7643 49.5381C95.0069 49.5486 95.2492 49.5099 95.4767 49.4245C95.7042 49.3391 95.9123 49.2086 96.0886 49.0409C96.2649 48.8731 96.4059 48.6715 96.5031 48.4479C96.6003 48.2244 96.6517 47.9835 96.6544 47.7396C96.6571 47.4957 96.6109 47.2537 96.5186 47.0281H96.5061Z" fill="#F87C68"/>
<path d="M96.0187 47.4454C95.3343 47.4416 94.6643 47.642 94.0934 48.0212C93.5226 48.4003 93.0767 48.9411 92.8122 49.575C92.5478 50.2089 92.4766 50.9074 92.6078 51.5819C92.7391 52.2564 93.0668 52.8767 93.5494 53.364C94.032 53.8513 94.6478 54.1838 95.3188 54.3192C95.9897 54.4547 96.6856 54.3871 97.3182 54.1249C97.9509 53.8628 98.4918 53.4179 98.8724 52.8467C99.253 52.2755 99.4562 51.6037 99.4562 50.9164C99.4562 49.9991 99.0947 49.119 98.4505 48.4686C97.8064 47.8182 96.9321 47.4503 96.0187 47.4454Z" fill="#365E7D"/>
<path d="M23.9811 47.4453C23.2976 47.4453 22.6293 47.6489 22.061 48.0303C21.4926 48.4117 21.0496 48.9538 20.788 49.588C20.5264 50.2223 20.458 50.9202 20.5913 51.5935C20.7247 52.2668 21.0538 52.8853 21.5372 53.3707C22.0206 53.8561 22.6364 54.1867 23.3069 54.3206C23.9773 54.4545 24.6723 54.3858 25.3038 54.1231C25.9353 53.8604 26.4751 53.4155 26.8549 52.8447C27.2347 52.2739 27.4374 51.6028 27.4374 50.9163C27.4374 49.9957 27.0733 49.1129 26.4251 48.4619C25.7769 47.811 24.8978 47.4453 23.9811 47.4453Z" fill="#365E7D"/>
<path d="M96.0188 50.9164C96.0189 50.3079 96.1784 49.7101 96.4811 49.1829C96.7839 48.6558 97.2193 48.2179 97.7438 47.913C97.2185 47.6068 96.6221 47.4449 96.0147 47.4439C95.4073 47.4428 94.8104 47.6024 94.284 47.9068C93.7576 48.2112 93.3204 48.6495 93.0163 49.1776C92.7123 49.7056 92.5522 50.3049 92.5522 50.9149C92.5522 51.5248 92.7123 52.1241 93.0163 52.6521C93.3204 53.1802 93.7576 53.6185 94.284 53.9229C94.8104 54.2273 95.4073 54.3869 96.0147 54.3859C96.6221 54.3848 97.2185 54.2229 97.7438 53.9167C97.2185 53.6136 96.7823 53.1765 96.4794 52.6496C96.1764 52.1227 96.0176 51.5248 96.0188 50.9164Z" fill="#294B64"/>
<path d="M23.9812 50.9164C23.9817 50.3076 24.1416 49.7096 24.4449 49.1824C24.7482 48.6552 25.1843 48.2175 25.7094 47.913C25.1841 47.6068 24.5877 47.4449 23.9803 47.4439C23.3729 47.4428 22.7759 47.6024 22.2495 47.9068C21.7231 48.2112 21.2859 48.6495 20.9819 49.1776C20.6779 49.7056 20.5178 50.3049 20.5178 50.9149C20.5178 51.5248 20.6779 52.1241 20.9819 52.6521C21.2859 53.1802 21.7231 53.6185 22.2495 53.9229C22.7759 54.2273 23.3729 54.3869 23.9803 54.3859C24.5877 54.3848 25.1841 54.2229 25.7094 53.9167C25.1835 53.614 24.7467 53.1771 24.4432 52.6502C24.1397 52.1233 23.9803 51.5251 23.9812 50.9164Z" fill="#294B64"/>
<path d="M54.8718 43.9775C53.5052 43.9775 52.1694 44.3845 51.0331 45.1469C49.8969 45.9094 49.0113 46.9931 48.4883 48.261C47.9654 49.5289 47.8286 50.9241 48.0952 52.2701C48.3618 53.6161 49.0198 54.8525 49.9861 55.8229C50.9524 56.7933 52.1835 57.4542 53.5238 57.7219C54.8641 57.9897 56.2534 57.8523 57.5159 57.3271C58.7784 56.8019 59.8575 55.9125 60.6167 54.7714C61.3759 53.6303 61.7812 52.2888 61.7812 50.9164C61.7812 49.0761 61.0532 47.3112 59.7574 46.0099C58.4617 44.7086 56.7043 43.9775 54.8718 43.9775Z" fill="#F4DD45"/>
<path d="M54.0781 50.9164C54.0774 49.6215 54.4377 48.3524 55.1181 47.2525C55.7985 46.1527 56.7719 45.2661 57.9281 44.6931C56.8747 44.1707 55.7061 43.9267 54.5326 43.9842C53.3592 44.0416 52.2197 44.3986 51.2219 45.0214C50.2241 45.6442 49.4009 46.5122 48.8301 47.5434C48.2593 48.5746 47.9597 49.735 47.9597 50.9148C47.9597 52.0946 48.2593 53.255 48.8301 54.2862C49.4009 55.3174 50.2241 56.1854 51.2219 56.8082C52.2197 57.431 53.3592 57.788 54.5326 57.8455C55.7061 57.9029 56.8747 57.6589 57.9281 57.1366C56.7724 56.5638 55.7993 55.6777 55.1189 54.5784C54.4385 53.4792 54.078 52.2107 54.0781 50.9164Z" fill="#FCC101"/>
<path d="M54.8717 66.5956C54.3919 66.5956 53.9316 66.4041 53.5923 66.0634C53.253 65.7226 53.0624 65.2604 53.0624 64.7785V50.9164C53.0522 50.6712 53.0915 50.4265 53.178 50.197C53.2644 49.9675 53.3962 49.7578 53.5653 49.5808C53.7345 49.4037 53.9376 49.2628 54.1623 49.1665C54.3871 49.0703 54.6289 49.0206 54.8733 49.0206C55.1176 49.0206 55.3595 49.0703 55.5842 49.1665C55.809 49.2628 56.0121 49.4037 56.1812 49.5808C56.3504 49.7578 56.4822 49.9675 56.5686 50.197C56.655 50.4265 56.6944 50.6712 56.6842 50.9164V64.7785C56.6834 65.2607 56.4921 65.7229 56.1523 66.0635C55.8124 66.4042 55.3519 66.5956 54.8717 66.5956Z" fill="#365E7D"/>
<path d="M58.2687 66.8466H51.4749C50.995 66.8466 50.5348 66.6552 50.1955 66.3144C49.8562 65.9736 49.6655 65.5114 49.6655 65.0295C49.6655 64.5476 49.8562 64.0854 50.1955 63.7446C50.5348 63.4038 50.995 63.2124 51.4749 63.2124H58.2687C58.7485 63.2124 59.2087 63.4038 59.5481 63.7446C59.8874 64.0854 60.078 64.5476 60.078 65.0295C60.078 65.5114 59.8874 65.9736 59.5481 66.3144C59.2087 66.6552 58.7485 66.8466 58.2687 66.8466Z" fill="#477B9E"/>
<path d="M53.9875 3.88841C53.5222 2.73858 52.7259 1.75433 51.7005 1.06162C50.675 0.368918 49.4671 -0.000727964 48.2312 1.07632e-06H29.6875C28.978 1.07632e-06 28.2976 0.283035 27.796 0.786836C27.2943 1.29064 27.0125 1.97394 27.0125 2.68642C27.0125 4.37053 27.6784 5.98571 28.8639 7.17685C30.0494 8.36799 31.6574 9.03758 33.3344 9.03841H39.2C39.8092 9.03941 40.4078 8.87778 40.9344 8.57007C41.461 8.26237 41.8967 7.81964 42.1969 7.28722C42.4967 6.75422 42.9322 6.31086 43.4588 6.00258C43.9854 5.6943 44.5842 5.53221 45.1937 5.53289H52.8937C53.0887 5.53282 53.2806 5.48466 53.4527 5.39266C53.6248 5.30066 53.7718 5.16762 53.8807 5.00524C53.9897 4.84286 54.0572 4.65609 54.0775 4.46136C54.0977 4.26662 54.07 4.06988 53.9968 3.88841H53.9875Z" fill="#477B9E"/>
<path d="M33.4594 2.68642C33.4602 1.97365 33.7427 1.29035 34.2449 0.786644C34.747 0.282933 35.4277 -4.85242e-07 36.1375 0H29.6875C28.978 0 28.2976 0.283034 27.796 0.786835C27.2943 1.29064 27.0125 1.97393 27.0125 2.68642C27.0125 4.37053 27.6784 5.98571 28.8639 7.17685C30.0494 8.36799 31.6574 9.03758 33.3344 9.03841H39.2C39.2844 9.03841 39.3656 9.03841 39.45 9.03841C37.8344 8.9501 36.3139 8.24337 35.2014 7.0636C34.0888 5.88382 33.4687 4.32072 33.4687 2.69583L33.4594 2.68642Z" fill="#365E7D"/>
</svg>
