<svg width="50" height="51" viewBox="0 0 50 51" fill="none" xmlns="http://www.w3.org/2000/svg">
<path d="M44.9475 38.2607H42.409C42.2152 38.2688 42.032 38.3511 41.8977 38.4903C41.7634 38.6295 41.6885 38.8149 41.6885 39.0077C41.6885 39.2006 41.7634 39.386 41.8977 39.5252C42.032 39.6644 42.2152 39.7467 42.409 39.7548H44.9475C45.0489 39.7591 45.15 39.7429 45.245 39.7073C45.3399 39.6716 45.4265 39.6173 45.4998 39.5475C45.573 39.4777 45.6313 39.3939 45.6711 39.3012C45.7109 39.2084 45.7314 39.1086 45.7314 39.0077C45.7314 38.9069 45.7109 38.8071 45.6711 38.7143C45.6313 38.6216 45.573 38.5378 45.4998 38.468C45.4265 38.3982 45.3399 38.3439 45.245 38.3082C45.15 38.2726 45.0489 38.2564 44.9475 38.2607Z" fill="black"/>
<path d="M44.9475 36.2751H42.409C42.2152 36.2832 42.032 36.3655 41.8977 36.5047C41.7634 36.6439 41.6885 36.8293 41.6885 37.0221C41.6885 37.215 41.7634 37.4004 41.8977 37.5396C42.032 37.6788 42.2152 37.7611 42.409 37.7692H44.9475C45.0489 37.7735 45.15 37.7573 45.245 37.7217C45.3399 37.686 45.4265 37.6317 45.4998 37.5619C45.573 37.4921 45.6313 37.4083 45.6711 37.3156C45.7109 37.2228 45.7314 37.123 45.7314 37.0221C45.7314 36.9213 45.7109 36.8215 45.6711 36.7287C45.6313 36.636 45.573 36.5522 45.4998 36.4824C45.4265 36.4126 45.3399 36.3583 45.245 36.3226C45.15 36.287 45.0489 36.2708 44.9475 36.2751Z" fill="black"/>
<path d="M44.9475 34.2882H42.409C42.2152 34.2963 42.032 34.3786 41.8977 34.5178C41.7634 34.657 41.6885 34.8424 41.6885 35.0353C41.6885 35.2281 41.7634 35.4135 41.8977 35.5527C42.032 35.692 42.2152 35.7742 42.409 35.7823H44.9475C45.0489 35.7866 45.15 35.7704 45.245 35.7348C45.3399 35.6992 45.4265 35.6448 45.4998 35.575C45.573 35.5052 45.6313 35.4214 45.6711 35.3287C45.7109 35.2359 45.7314 35.1361 45.7314 35.0353C45.7314 34.9344 45.7109 34.8346 45.6711 34.7419C45.6313 34.6491 45.573 34.5653 45.4998 34.4955C45.4265 34.4257 45.3399 34.3714 45.245 34.3358C45.15 34.3001 45.0489 34.284 44.9475 34.2882Z" fill="black"/>
<path d="M44.9475 31.1339H42.409C42.2152 31.142 42.032 31.2243 41.8977 31.3635C41.7634 31.5027 41.6885 31.6881 41.6885 31.881C41.6885 32.0738 41.7634 32.2592 41.8977 32.3984C42.032 32.5377 42.2152 32.6199 42.409 32.628H44.9475C45.0489 32.6323 45.15 32.6161 45.245 32.5805C45.3399 32.5449 45.4265 32.4905 45.4998 32.4207C45.573 32.3509 45.6313 32.2671 45.6711 32.1744C45.7109 32.0816 45.7314 31.9818 45.7314 31.881C45.7314 31.7801 45.7109 31.6803 45.6711 31.5876C45.6313 31.4948 45.573 31.411 45.4998 31.3412C45.4265 31.2714 45.3399 31.2171 45.245 31.1815C45.15 31.1458 45.0489 31.1297 44.9475 31.1339Z" fill="black"/>
<path d="M44.9475 29.1484H42.409C42.2152 29.1566 42.032 29.2388 41.8977 29.378C41.7634 29.5172 41.6885 29.7026 41.6885 29.8955C41.6885 30.0884 41.7634 30.2738 41.8977 30.413C42.032 30.5522 42.2152 30.6344 42.409 30.6426H44.9475C45.0489 30.6468 45.15 30.6306 45.245 30.595C45.3399 30.5594 45.4265 30.505 45.4998 30.4353C45.573 30.3655 45.6313 30.2817 45.6711 30.1889C45.7109 30.0961 45.7314 29.9963 45.7314 29.8955C45.7314 29.7947 45.7109 29.6949 45.6711 29.6021C45.6313 29.5093 45.573 29.4255 45.4998 29.3557C45.4265 29.286 45.3399 29.2316 45.245 29.196C45.15 29.1604 45.0489 29.1442 44.9475 29.1484Z" fill="black"/>
<path d="M44.9475 27.1616H42.409C42.2152 27.1697 42.032 27.2519 41.8977 27.3912C41.7634 27.5304 41.6885 27.7158 41.6885 27.9086C41.6885 28.1015 41.7634 28.2869 41.8977 28.4261C42.032 28.5653 42.2152 28.6476 42.409 28.6557H44.9475C45.0489 28.6599 45.15 28.6438 45.245 28.6081C45.3399 28.5725 45.4265 28.5182 45.4998 28.4484C45.573 28.3786 45.6313 28.2948 45.6711 28.202C45.7109 28.1093 45.7314 28.0095 45.7314 27.9086C45.7314 27.8078 45.7109 27.708 45.6711 27.6152C45.6313 27.5225 45.573 27.4387 45.4998 27.3689C45.4265 27.2991 45.3399 27.2447 45.245 27.2091C45.15 27.1735 45.0489 27.1573 44.9475 27.1616Z" fill="black"/>
<path d="M44.9475 24.0072H42.4089C42.2094 24.0072 42.0181 24.086 41.877 24.2262C41.736 24.3664 41.6567 24.5566 41.6567 24.7549C41.6567 24.9532 41.736 25.1434 41.877 25.2837C42.0181 25.4239 42.2094 25.5027 42.4089 25.5027H44.9475C45.147 25.5027 45.3383 25.4239 45.4794 25.2837C45.6204 25.1434 45.6997 24.9532 45.6997 24.7549C45.6997 24.5566 45.6204 24.3664 45.4794 24.2262C45.3383 24.086 45.147 24.0072 44.9475 24.0072Z" fill="black"/>
<path d="M44.9475 22.0217H42.409C42.2152 22.0298 42.032 22.112 41.8977 22.2513C41.7634 22.3905 41.6885 22.5759 41.6885 22.7687C41.6885 22.9616 41.7634 23.147 41.8977 23.2862C42.032 23.4254 42.2152 23.5077 42.409 23.5158H44.9475C45.0489 23.52 45.15 23.5039 45.245 23.4682C45.3399 23.4326 45.4265 23.3783 45.4998 23.3085C45.573 23.2387 45.6313 23.1549 45.6711 23.0621C45.7109 22.9694 45.7314 22.8696 45.7314 22.7687C45.7314 22.6679 45.7109 22.5681 45.6711 22.4753C45.6313 22.3826 45.573 22.2988 45.4998 22.229C45.4265 22.1592 45.3399 22.1048 45.245 22.0692C45.15 22.0336 45.0489 22.0174 44.9475 22.0217Z" fill="black"/>
<path d="M44.9475 20.0348H42.409C42.2152 20.0429 42.032 20.1252 41.8977 20.2644C41.7634 20.4036 41.6885 20.589 41.6885 20.7819C41.6885 20.9747 41.7634 21.1601 41.8977 21.2993C42.032 21.4385 42.2152 21.5208 42.409 21.5289H44.9475C45.0489 21.5332 45.15 21.517 45.245 21.4814C45.3399 21.4457 45.4265 21.3914 45.4998 21.3216C45.573 21.2518 45.6313 21.168 45.6711 21.0753C45.7109 20.9825 45.7314 20.8827 45.7314 20.7819C45.7314 20.681 45.7109 20.5812 45.6711 20.4884C45.6313 20.3957 45.573 20.3119 45.4998 20.2421C45.4265 20.1723 45.3399 20.118 45.245 20.0823C45.15 20.0467 45.0489 20.0305 44.9475 20.0348Z" fill="black"/>
<path d="M49.5864 12.3476C49.5254 11.3678 49.1197 10.4406 48.4405 9.72803C47.7613 9.01546 46.8517 8.56292 45.8708 8.44953C43.0648 8.12053 40.2417 7.95732 37.4162 7.96078H37.2465C37.2332 7.73367 37.2211 7.50789 37.2064 7.28078C37.106 5.59025 36.4033 3.9905 35.2242 2.7681C34.0452 1.54571 32.4669 0.780521 30.772 0.60961C22.8688 -0.203203 14.9024 -0.203203 6.99932 0.60961C5.30455 0.780558 3.72639 1.54579 2.54758 2.76821C1.36877 3.99064 0.666344 5.59036 0.566159 7.28078C-0.18872 19.4153 -0.18872 31.5847 0.566159 43.7192C0.666344 45.4096 1.36877 47.0094 2.54758 48.2318C3.72639 49.4542 5.30455 50.2194 6.99932 50.3904C10.9498 50.797 14.9187 51.0005 18.8903 51C22.8619 51.0005 26.8309 50.797 30.7813 50.3904C32.3032 50.2366 33.7351 49.6006 34.8657 48.5762C34.9387 48.5102 34.998 48.4306 35.0402 48.3419C35.0823 48.2532 35.1065 48.1571 35.1112 48.0592C35.116 47.9612 35.1013 47.8632 35.068 47.7709C35.0347 47.6785 34.9834 47.5936 34.9171 47.521C34.8508 47.4483 34.7707 47.3894 34.6815 47.3475C34.5922 47.3056 34.4956 47.2816 34.397 47.2769C34.2984 47.2721 34.1999 47.2867 34.107 47.3198C34.0141 47.3529 33.9287 47.4039 33.8556 47.4698C32.958 48.2805 31.8213 48.7817 30.6143 48.8989C22.8143 49.7024 14.9516 49.7024 7.15164 48.8989C5.81112 48.7639 4.5628 48.1586 3.63048 47.1917C2.69815 46.2248 2.14277 44.9593 2.06389 43.6223C1.31147 31.5479 1.31147 19.4388 2.06389 7.36445C2.14299 6.02732 2.69842 4.76187 3.63067 3.79475C4.56293 2.82764 5.81111 2.22206 7.15164 2.08648C14.9517 1.2843 22.8142 1.2843 30.6143 2.08648C31.9551 2.22177 33.2036 2.82722 34.1361 3.79436C35.0686 4.7615 35.6242 6.02712 35.7034 7.36445C36.4545 19.4389 36.4545 31.5479 35.7034 43.6223C35.6664 44.2274 35.531 44.8226 35.3026 45.3847C35.2368 45.5665 35.2443 45.7666 35.3237 45.943C35.403 46.1194 35.548 46.2585 35.7282 46.3309C35.9084 46.4034 36.1099 46.4037 36.2903 46.3318C36.4708 46.2599 36.6162 46.1213 36.6961 45.9451C36.9852 45.2339 37.1566 44.4809 37.2038 43.7152C37.2185 43.4881 37.2305 43.2623 37.2439 43.0352H37.5111C40.3027 43.0346 43.0918 42.8714 45.8642 42.5465C46.8468 42.4342 47.7583 41.9816 48.4389 41.2681C49.1195 40.5547 49.5258 39.6258 49.5864 38.6444C50.1379 29.8874 50.1379 21.1046 49.5864 12.3476ZM48.0901 38.5555C48.0502 39.1858 47.7889 39.7821 47.3518 40.2404C46.9147 40.6987 46.3295 40.9898 45.6985 41.063C42.9524 41.386 40.1894 41.5461 37.4242 41.5424H37.3361C37.9213 30.8527 37.9213 20.1393 37.3361 9.44961H37.4229C40.1885 9.44777 42.9518 9.60786 45.6985 9.92906C46.3295 10.0022 46.9147 10.2933 47.3518 10.7516C47.7889 11.2099 48.0502 11.8063 48.0901 12.4366C48.6365 21.1344 48.6365 29.8576 48.0901 38.5555Z" fill="black"/>
<path d="M33.4533 8.80015C33.339 7.68436 32.8227 6.64728 31.9997 5.88013C31.1766 5.11299 30.1023 4.66751 28.9748 4.62585C22.2838 4.36023 15.4952 4.36023 8.80021 4.62585C7.67293 4.66747 6.59877 5.11276 5.77575 5.87963C4.95273 6.64651 4.43632 7.68327 4.32172 8.79882C4.09458 10.8947 4.09458 13.0088 4.32172 15.1048C4.41071 15.9137 4.70956 16.6857 5.18899 17.3453C5.66842 18.0049 6.31198 18.5294 7.05664 18.8673C7.14719 18.9124 7.24596 18.9389 7.34703 18.9451C7.4481 18.9513 7.5494 18.9372 7.64485 18.9035C7.7403 18.8699 7.82793 18.8175 7.9025 18.7493C7.97706 18.6812 8.03702 18.5989 8.07878 18.5071C8.12055 18.4154 8.14325 18.3163 8.14553 18.2157C8.14782 18.115 8.12964 18.015 8.09208 17.9215C8.05452 17.828 7.99836 17.743 7.92696 17.6716C7.85556 17.6002 7.7704 17.5439 7.67658 17.506C7.16979 17.2757 6.73184 16.9185 6.4056 16.4694C6.07936 16.0203 5.87601 15.4947 5.81544 14.9441C5.60033 12.9549 5.60033 10.9486 5.81544 8.95953C5.89238 8.20048 6.24312 7.49476 6.80283 6.9728C7.36254 6.45084 8.09339 6.14791 8.86033 6.11999C15.5139 5.85437 22.2597 5.85437 28.912 6.11999C29.6789 6.14767 30.4097 6.45056 30.9693 6.9726C31.5288 7.49463 31.8792 8.20048 31.9556 8.95953C32.172 10.949 32.172 12.9559 31.9556 14.9454C31.8787 15.7042 31.5281 16.4098 30.9687 16.9317C30.4093 17.4536 29.6787 17.7567 28.912 17.7849C22.7661 18.0333 16.5227 18.0505 10.3581 17.8407C10.2595 17.8373 10.1611 17.8532 10.0687 17.8876C9.97633 17.922 9.89163 17.9741 9.81949 18.041C9.74734 18.1079 9.68916 18.1883 9.64826 18.2775C9.60737 18.3668 9.58456 18.4632 9.58114 18.5612C9.57772 18.6592 9.59375 18.757 9.62833 18.8488C9.6629 18.9407 9.71534 19.0249 9.78264 19.0966C9.84995 19.1683 9.9308 19.2261 10.0206 19.2668C10.1104 19.3074 10.2074 19.3301 10.306 19.3335C13.1571 19.4318 16.0243 19.4809 18.8915 19.4809C22.2611 19.4809 25.632 19.4132 28.9735 19.2777C30.1005 19.2358 31.1744 18.7904 31.9971 18.0235C32.8198 17.2567 33.3361 16.2201 33.4506 15.1048C33.6778 13.0093 33.6778 10.8956 33.4506 8.80015H33.4533Z" fill="black"/>
<path d="M29.0859 21.7853C22.2972 21.3018 15.4823 21.3018 8.69356 21.7853C7.63294 21.8565 6.63252 22.3009 5.8716 23.0388C5.11067 23.7767 4.63897 24.7599 4.54106 25.8121C4.02668 31.296 4.02668 36.8156 4.54106 42.2995C4.63927 43.3515 5.1111 44.3343 5.872 45.072C6.6329 45.8096 7.63315 46.2538 8.69356 46.325C12.0765 46.5667 15.4821 46.6889 18.8891 46.6889C22.2961 46.6889 25.703 46.5667 29.0859 46.325C30.1464 46.2541 31.1468 45.8099 31.9078 45.0723C32.6687 44.3346 33.1405 43.3516 33.2384 42.2995C33.7515 36.8155 33.7515 31.2961 33.2384 25.8121C33.1405 24.7599 32.6688 23.7767 31.9079 23.0388C31.147 22.3009 30.1466 21.8565 29.0859 21.7853ZM31.7407 25.9503C31.8449 27.0553 31.9269 28.162 31.9865 29.2706C29.5522 29.2108 27.0965 29.1683 24.6622 29.1378C24.6315 27.0951 24.5794 25.0471 24.5072 23.0217C26.001 23.0802 27.4911 23.1625 28.9777 23.2688C29.6829 23.3148 30.3486 23.6092 30.855 24.0992C31.3614 24.5893 31.6755 25.2427 31.7407 25.9423V25.9503ZM5.72215 30.77C8.17249 30.7089 10.6456 30.6664 13.0972 30.6372C13.0732 32.9083 13.0732 35.198 13.0972 37.4678C10.6456 37.4412 8.17249 37.3987 5.72215 37.3349C5.63931 35.1475 5.63931 32.9521 5.72215 30.7647V30.77ZM14.6016 37.485C14.5763 35.206 14.5763 32.9056 14.6016 30.6253C17.4515 30.6027 20.3267 30.6027 23.1779 30.6253C23.2032 32.9056 23.2032 35.2046 23.1779 37.485C20.328 37.5089 17.4515 37.5089 14.6016 37.485ZM24.6809 30.6399C27.134 30.6664 29.6057 30.7089 32.056 30.7727C32.1389 32.9614 32.1389 35.1515 32.056 37.3429C29.6057 37.404 27.134 37.4465 24.6809 37.4757C24.7063 35.206 24.7063 32.9163 24.6809 30.6452V30.6399ZM22.9988 22.9726C23.071 25.0086 23.1244 27.0712 23.1565 29.1258C20.3187 29.1032 17.4555 29.1032 14.6177 29.1258C14.6497 27.0712 14.7018 25.0086 14.774 22.9726C16.1448 22.9328 17.5156 22.9124 18.8864 22.9115C20.2572 22.9106 21.628 22.931 22.9988 22.9726ZM6.03078 25.9449C6.09629 25.2455 6.41042 24.5922 6.91679 24.1022C7.42317 23.6122 8.08863 23.3177 8.79376 23.2714C10.2804 23.1643 11.7705 23.082 13.2642 23.0244C13.1934 25.0498 13.1413 27.0978 13.1106 29.1404C10.6749 29.1656 8.21925 29.2081 5.78494 29.2732C5.84462 28.1638 5.92656 27.057 6.03078 25.9529V25.9449ZM6.03078 42.1547C5.92656 41.0497 5.84462 39.9429 5.78494 38.8344C8.21925 38.8942 10.6749 38.9367 13.1106 38.9672C13.1413 41.0099 13.1934 43.0578 13.2642 45.0832C11.7705 45.023 10.2804 44.9407 8.79376 44.8362C8.08852 44.7896 7.42303 44.4948 6.91668 44.0046C6.41033 43.5144 6.09625 42.8609 6.03078 42.1613V42.1547ZM14.77 45.1284C14.6978 43.0924 14.6457 41.0298 14.6137 38.9738C16.0326 38.9854 17.4577 38.9916 18.8891 38.9924C20.3205 38.9933 21.7456 38.9871 23.1645 38.9738C23.1324 41.0298 23.079 43.091 23.0068 45.1284C20.2679 45.2072 17.5263 45.2072 14.782 45.1284H14.77ZM31.738 42.1547C31.6726 42.8543 31.3585 43.5078 30.8521 43.998C30.3458 44.4882 29.6803 44.783 28.975 44.8296C27.4893 44.9358 25.9996 45.0181 24.5059 45.0766C24.5767 43.0512 24.6288 41.0019 24.6596 38.9606C27.0952 38.934 29.5496 38.8915 31.9839 38.8278C31.9242 39.9381 31.8422 41.0448 31.738 42.1481V42.1547Z" fill="black"/>
<path d="M27.5921 14.6997C26.6876 14.6997 26.3896 14.6652 25.6802 14.288C25.593 14.2372 25.4963 14.2044 25.396 14.1915C25.2958 14.1787 25.1939 14.186 25.0966 14.2132C24.9992 14.2403 24.9084 14.2867 24.8295 14.3496C24.7506 14.4124 24.6852 14.4904 24.6373 14.5789C24.5895 14.6674 24.56 14.7647 24.5508 14.8647C24.5415 14.9648 24.5527 15.0657 24.5835 15.1614C24.6144 15.2571 24.6644 15.3457 24.7304 15.4217C24.7965 15.4978 24.8773 15.5599 24.9681 15.6042C25.7029 16.0026 26.2186 16.1354 26.8385 16.1753V16.4741C26.8343 16.5749 26.8505 16.6755 26.8864 16.7698C26.9222 16.8641 26.9769 16.9503 27.0471 17.0231C27.1173 17.0959 27.2016 17.1538 27.2949 17.1934C27.3882 17.233 27.4886 17.2534 27.5901 17.2534C27.6915 17.2534 27.7919 17.233 27.8853 17.1934C27.9786 17.1538 28.0629 17.0959 28.1331 17.0231C28.2033 16.9503 28.2579 16.8641 28.2938 16.7698C28.3296 16.6755 28.3459 16.5749 28.3416 16.4741V16.1169C29.7191 15.8366 30.5582 14.8193 30.6998 13.8165C30.8334 12.9054 30.3925 11.6716 28.7438 11.1935C27.9274 10.9584 27.0229 10.6715 26.5059 10.3395C26.4343 10.2925 26.3791 10.2246 26.3478 10.1452C26.3165 10.0658 26.3106 9.97877 26.3308 9.89592C26.3749 9.64092 26.5887 9.32615 27.0617 9.20927C27.3655 9.12484 27.6833 9.10132 27.9964 9.14008C28.3094 9.17884 28.6117 9.27911 28.8854 9.43506C28.9685 9.49465 29.0629 9.53672 29.163 9.55867C29.263 9.58062 29.3665 9.58198 29.4671 9.56267C29.5677 9.54337 29.6633 9.50381 29.7479 9.44642C29.8326 9.38903 29.9045 9.31503 29.9593 9.22898C30.0141 9.14292 30.0506 9.04663 30.0665 8.94603C30.0825 8.84543 30.0775 8.74265 30.052 8.64401C30.0265 8.54537 29.981 8.45297 29.9182 8.37248C29.8555 8.29199 29.7768 8.22512 29.687 8.17599C29.2763 7.92472 28.8194 7.75723 28.343 7.68326V7.43357C28.3348 7.24089 28.252 7.05879 28.112 6.92533C27.9719 6.79186 27.7854 6.71735 27.5914 6.71735C27.3974 6.71735 27.2109 6.79186 27.0709 6.92533C26.9308 7.05879 26.8481 7.24089 26.8399 7.43357V7.7324C26.7945 7.74303 26.7477 7.75232 26.7063 7.76427C25.7336 8.00334 25.0055 8.74576 24.8532 9.65553C24.7842 10.026 24.8274 10.4086 24.9772 10.7547C25.1271 11.1008 25.3768 11.3949 25.6949 11.5999C26.2427 11.9519 27.0056 12.2507 28.3283 12.6332C28.9549 12.8151 29.2782 13.1724 29.2167 13.6147C29.1419 14.1393 28.5487 14.6997 27.5921 14.7051V14.6997Z" fill="black"/>
</svg>
