<svg width="69" height="65" viewBox="0 0 69 65" fill="none" xmlns="http://www.w3.org/2000/svg">
<path opacity="0.2" fill-rule="evenodd" clip-rule="evenodd" d="M65.7911 43.1488L21.5476 64.4434C18.7326 65.7942 15.3584 64.6023 14.006 61.7788L12.5355 58.6993C12.2944 58.1964 12.5064 57.5925 13.0076 57.3515L14.8223 56.4776L0.501244 26.4924C-0.715181 23.9378 0.358194 20.8753 2.90108 19.6475L42.679 0.503551C45.2239 -0.718255 48.2739 0.359574 49.4964 2.91217L63.8174 32.8974L65.632 32.0235C66.1332 31.7826 66.7344 31.9945 66.9745 32.4975L68.445 35.578C69.7915 38.4045 68.604 41.791 65.7911 43.1488ZM47.6817 3.78503C46.9405 2.23727 45.0918 1.58438 43.5483 2.32526L3.77039 21.4692C2.22885 22.2141 1.57862 24.0698 2.31588 25.6195L16.6369 55.6048L62.0027 33.7703L47.6817 3.78503ZM35.8086 48.6179C36.7159 49.5227 38.0914 49.7577 39.2448 49.2048L42.8741 47.4571C44.0265 46.9012 44.7057 45.6774 44.5707 44.4006L35.8086 48.6179ZM66.6304 36.4508L65.595 34.2822L46.4503 43.4967C47.0285 45.8243 45.8981 48.2399 43.7444 49.2788L40.1151 51.0255C37.9583 52.0603 35.3754 51.4324 33.9299 49.5217L14.7842 58.7363L15.8206 60.9049C16.6909 62.7236 18.8647 63.4915 20.6773 62.6207L64.9218 41.327C66.7324 40.4532 67.4977 38.2715 66.6304 36.4508ZM4.56867 23.3259L44.4906 4.11198C44.9918 3.87101 45.593 4.08298 45.8331 4.5859L58.8827 31.9115C59.1227 32.4145 58.9117 33.0184 58.4105 33.2593L18.4885 52.4723C17.9874 52.7142 17.3861 52.5013 17.1461 51.9984L4.0965 24.6737C3.85642 24.1708 4.06749 23.5669 4.56867 23.3259ZM18.5255 50.2146L56.6329 31.8736L44.4536 6.37062L6.34629 24.7117L18.5255 50.2146Z" fill="#E63A28"/>
</svg>
