<svg width="93" height="91" viewBox="0 0 93 91" fill="none" xmlns="http://www.w3.org/2000/svg">
<path d="M81.4337 37.0991V91H10.7201V37.0991L46.2767 2.6062L81.4337 37.0991Z" fill="#E9EAEF"/>
<path d="M81.8099 10.7021V34.9032L69.7741 23.4398L64.1315 18.0672V10.7021C64.1315 10.0147 64.4045 9.35542 64.8906 8.86936C65.3767 8.3833 66.0359 8.11023 66.7233 8.11023H79.218C79.9054 8.11023 80.5647 8.3833 81.0507 8.86936C81.5368 9.35542 81.8099 10.0147 81.8099 10.7021Z" fill="#9EB1B7"/>
<path d="M69.7741 8.11023V23.4398L64.1315 18.0672V10.7021C64.1315 10.0147 64.4045 9.35542 64.8906 8.86936C65.3767 8.3833 66.0359 8.11023 66.7233 8.11023H69.7741Z" fill="#879BA0"/>
<path d="M92.1538 82.6972V90.9982H49.4625V82.6972C49.4615 82.3035 49.5382 81.9135 49.6882 81.5495C49.8382 81.1855 50.0586 80.8547 50.3366 80.576C50.6146 80.2973 50.9449 80.0762 51.3086 79.9253C51.6722 79.7744 52.062 79.6968 52.4557 79.6968H89.1606C89.5542 79.6968 89.9441 79.7744 90.3077 79.9253C90.6713 80.0762 91.0016 80.2973 91.2796 80.576C91.5577 80.8547 91.778 81.1855 91.928 81.5495C92.078 81.9135 92.1547 82.3035 92.1538 82.6972Z" fill="#9CCE21"/>
<path d="M14.9642 82.6972V90.9982H1.35382e-05V82.6972C-0.00117056 82.3036 0.0753304 81.9136 0.225132 81.5496C0.374933 81.1857 0.59509 80.8548 0.872985 80.5761C1.15088 80.2974 1.48105 80.0762 1.84457 79.9253C2.20809 79.7744 2.59782 79.6968 2.99141 79.6968H11.971C12.3647 79.6965 12.7547 79.774 13.1184 79.9248C13.4821 80.0756 13.8125 80.2967 14.0906 80.5755C14.3687 80.8542 14.589 81.1851 14.7389 81.5492C14.8888 81.9133 14.9654 82.3034 14.9642 82.6972Z" fill="#9CCE21"/>
<path d="M92.1538 85.5175V90.9981H49.4625V85.5175C49.4629 84.724 49.7785 83.9631 50.3398 83.4022C50.9011 82.8412 51.6621 82.5261 52.4557 82.5261H89.1606C89.9541 82.5261 90.7152 82.8412 91.2764 83.4022C91.8377 83.9631 92.1533 84.724 92.1538 85.5175Z" fill="#85C10D"/>
<path d="M14.9642 85.5175V90.9981H0V85.5175C0 84.7242 0.315164 83.9633 0.87616 83.4023C1.43716 82.8413 2.19803 82.5261 2.9914 82.5261H11.971C12.364 82.5259 12.7532 82.6031 13.1163 82.7533C13.4794 82.9035 13.8094 83.1238 14.0874 83.4016C14.3654 83.6794 14.5859 84.0093 14.7363 84.3723C14.8867 84.7354 14.9642 85.1245 14.9642 85.5175Z" fill="#85C10D"/>
<path d="M81.4337 39.2157V49.2896L46.0769 15.5311L10.7201 49.2896V39.2157L43.2691 8.21639L46.0769 5.60657L48.8829 8.21639L81.4337 39.2157Z" fill="#D2D4D8"/>
<path d="M46.0769 9.92453L5.82081 48.3591L0.190796 43.6344L43.2691 2.60802L46.0769 0L48.8829 2.60802L91.9612 43.6344L86.3329 48.3591L46.0769 9.92453Z" fill="#EA4756"/>
<path d="M42.6913 50.6162H19.3703V91.0001H42.6913V50.6162Z" fill="#C97523"/>
<path d="M76.0197 50.6162H49.4625V73.9372H76.0197V50.6162Z" fill="#A0D9F2"/>
<path d="M76.0197 50.6162H49.4625V57.7023H76.0197V50.6162Z" fill="#C97523"/>
<path d="M38.0962 72.0887H34.7106C34.3364 72.0887 33.9774 71.94 33.7128 71.6754C33.4482 71.4108 33.2995 71.0518 33.2995 70.6776C33.2995 70.3033 33.4482 69.9444 33.7128 69.6798C33.9774 69.4152 34.3364 69.2665 34.7106 69.2665H38.0962C38.4704 69.2665 38.8293 69.4152 39.094 69.6798C39.3586 69.9444 39.5073 70.3033 39.5073 70.6776C39.5073 71.0518 39.3586 71.4108 39.094 71.6754C38.8293 71.94 38.4704 72.0887 38.0962 72.0887Z" fill="#8E480E"/>
<path d="M52.5882 33.4953C53.1615 29.9476 50.7503 26.6068 47.2026 26.0335C43.655 25.4601 40.3142 27.8713 39.7408 31.419C39.1674 34.9667 41.5786 38.3075 45.1263 38.8808C48.674 39.4542 52.0148 37.043 52.5882 33.4953Z" fill="#413740"/>
<path d="M42.6913 49.2051H19.3703C18.9967 49.2056 18.6385 49.3542 18.3743 49.6184C18.1101 49.8826 17.9615 50.2408 17.961 50.6144V90.9982H20.7814V52.0255H41.282V90.9982H44.097V50.6144C44.097 50.2412 43.949 49.8833 43.6855 49.6191C43.422 49.3549 43.0645 49.206 42.6913 49.2051Z" fill="#8E480E"/>
<path d="M76.0179 49.2051H49.4625C49.0886 49.2051 48.7299 49.3535 48.4653 49.6177C48.2007 49.882 48.0519 50.2405 48.0514 50.6144V73.9372C48.0514 74.3114 48.2001 74.6704 48.4647 74.935C48.7293 75.1996 49.0882 75.3483 49.4625 75.3483H76.0179C76.3921 75.3483 76.7511 75.1996 77.0157 74.935C77.2803 74.6704 77.429 74.3114 77.429 73.9372V50.6144C77.429 50.4292 77.3925 50.2458 77.3215 50.0746C77.2506 49.9035 77.1466 49.7481 77.0156 49.6172C76.8845 49.4863 76.729 49.3826 76.5578 49.3118C76.3866 49.2411 76.2031 49.2048 76.0179 49.2051ZM74.6086 52.0255V56.2984H50.8718V52.0327L74.6086 52.0255ZM50.8718 72.5243V59.1116H74.6086V72.5243H50.8718Z" fill="#8E480E"/>
<path d="M46.0769 40.4937C44.5143 40.494 42.9868 40.031 41.6874 39.1631C40.388 38.2952 39.3752 37.0615 38.7771 35.6179C38.179 34.1744 38.0224 32.5858 38.3271 31.0533C38.6319 29.5207 39.3843 28.113 40.4892 27.0081C41.5941 25.9032 43.0018 25.1508 44.5344 24.846C46.0669 24.5413 47.6554 24.6979 49.099 25.296C50.5425 25.8941 51.7763 26.9069 52.6442 28.2063C53.512 29.5057 53.9751 31.0332 53.9747 32.5958C53.9728 34.6899 53.1401 36.6976 51.6594 38.1783C50.1787 39.659 48.1709 40.4918 46.0769 40.4937ZM46.0769 27.5183C45.0727 27.5183 44.091 27.8161 43.256 28.3741C42.421 28.932 41.7702 29.725 41.3859 30.6527C41.0016 31.5805 40.9011 32.6014 41.097 33.5864C41.2929 34.5713 41.7765 35.476 42.4866 36.1861C43.1967 36.8962 44.1014 37.3798 45.0863 37.5757C46.0712 37.7716 47.0922 37.6711 48.0199 37.2868C48.9477 36.9025 49.7407 36.2517 50.2986 35.4167C50.8565 34.5817 51.1543 33.6 51.1543 32.5958C51.1529 31.2496 50.6175 29.959 49.6656 29.0071C48.7137 28.0552 47.4231 27.5198 46.0769 27.5183Z" fill="#EA4756"/>
</svg>
