<svg width="98" height="81" viewBox="0 0 98 81" fill="none" xmlns="http://www.w3.org/2000/svg">
<path d="M20.603 64.225C20.0679 63.6917 19.3426 63.3922 18.5865 63.3922C17.8303 63.3922 17.1051 63.6917 16.57 64.225L9.44779 71.3354C9.17198 71.5972 8.95146 71.9114 8.79922 72.2596C8.64699 72.6077 8.56612 72.9828 8.56138 73.3626C8.55664 73.7425 8.62814 74.1195 8.77164 74.4713C8.91514 74.8231 9.12776 75.1428 9.39696 75.4113C9.66616 75.6799 9.98648 75.8919 10.3391 76.035C10.6917 76.178 11.0694 76.2492 11.45 76.2443C11.8305 76.2394 12.2063 76.1585 12.5551 76.0064C12.9038 75.8543 13.2186 75.634 13.4807 75.3586L20.603 68.2501C21.1372 67.7161 21.4373 66.9922 21.4373 66.2375C21.4373 65.4828 21.1372 64.759 20.603 64.225Z" fill="#2B6182"/>
<path d="M77.3971 64.225C77.9322 63.6917 78.6574 63.3922 79.4136 63.3922C80.1697 63.3922 80.8949 63.6917 81.43 64.225L88.5522 71.3354C88.8281 71.5972 89.0486 71.9114 89.2008 72.2596C89.353 72.6077 89.4339 72.9828 89.4387 73.3626C89.4434 73.7425 89.3719 74.1195 89.2284 74.4713C89.0849 74.8231 88.8723 75.1428 88.6031 75.4113C88.3339 75.6799 88.0136 75.8919 87.661 76.035C87.3084 76.178 86.9307 76.2492 86.5501 76.2443C86.1695 76.2394 85.7937 76.1585 85.445 76.0064C85.0962 75.8543 84.7815 75.634 84.5193 75.3586L77.3971 68.2501C76.8628 67.7161 76.5627 66.9922 76.5627 66.2375C76.5627 65.4828 76.8628 64.759 77.3971 64.225Z" fill="#2B6182"/>
<path d="M93.502 66.3856H4.49805C3.68582 66.3856 2.90686 66.0635 2.33253 65.4903C1.7582 64.9171 1.43555 64.1396 1.43555 63.329V4.48934C1.43555 3.67868 1.7582 2.90122 2.33253 2.328C2.90686 1.75477 3.68582 1.43274 4.49805 1.43274H93.502C94.3142 1.43274 95.0931 1.75477 95.6675 2.328C96.2418 2.90122 96.5645 3.67868 96.5645 4.48934V63.329C96.5645 64.1396 96.2418 64.9171 95.6675 65.4903C95.0931 66.0635 94.3142 66.3856 93.502 66.3856Z" fill="#BDF9FF"/>
<path d="M93.502 1.43274H87.7598C88.572 1.43274 89.351 1.75477 89.9253 2.328C90.4996 2.90122 90.8223 3.67868 90.8223 4.48934V63.329C90.8223 64.1396 90.4996 64.9171 89.9253 65.4903C89.351 66.0635 88.572 66.3856 87.7598 66.3856H93.502C94.3142 66.3856 95.0931 66.0635 95.6675 65.4903C96.2418 64.9171 96.5645 64.1396 96.5645 63.329V4.48934C96.5645 3.67868 96.2418 2.90122 95.6675 2.328C95.0931 1.75477 94.3142 1.43274 93.502 1.43274Z" fill="#8CF2FF"/>
<path d="M1.43555 63.329V58.7441H96.5645V63.329C96.5645 64.1397 96.2418 64.9172 95.6675 65.4904C95.0931 66.0636 94.3142 66.3857 93.502 66.3857H4.49805C3.68582 66.3857 2.90686 66.0636 2.33253 65.4904C1.7582 64.9172 1.43555 64.1397 1.43555 63.329Z" fill="#4380A0"/>
<path d="M90.8223 58.7441V63.329C90.8223 64.1397 90.4996 64.9172 89.9253 65.4904C89.351 66.0636 88.572 66.3857 87.7598 66.3857H93.502C94.3142 66.3857 95.0931 66.0636 95.6675 65.4904C96.2418 64.9172 96.5645 64.1397 96.5645 63.329V58.7441H90.8223Z" fill="#3B7191"/>
<path d="M93.502 0H4.49805C3.3054 0.00101177 2.1619 0.474327 1.31857 1.31603C0.475242 2.15774 0.00101372 3.29904 0 4.48939V63.329C0.00101372 64.5194 0.475242 65.6607 1.31857 66.5024C2.1619 67.3441 3.3054 67.8174 4.49805 67.8184H93.502C94.6946 67.8174 95.8381 67.3441 96.6814 66.5024C97.5248 65.6607 97.999 64.5194 98 63.329V4.48939C97.999 3.29904 97.5248 2.15774 96.6814 1.31603C95.8381 0.474327 94.6946 0.00101177 93.502 0ZM95.1289 63.329C95.1284 63.7595 94.9568 64.1723 94.6518 64.4767C94.3468 64.7811 93.9333 64.9523 93.502 64.9528H4.49805C4.06671 64.9523 3.65318 64.7811 3.34817 64.4767C3.04317 64.1723 2.8716 63.7595 2.87109 63.329V4.48939C2.8716 4.05888 3.04317 3.64615 3.34817 3.34173C3.65318 3.03732 4.06671 2.86607 4.49805 2.86557H93.502C93.9333 2.86607 94.3468 3.03732 94.6518 3.34173C94.9568 3.64615 95.1284 4.05888 95.1289 4.48939V63.329Z" fill="#2B6182"/>
<path d="M95.1289 81.0001H2.87109C2.10963 81.0001 1.37935 80.6982 0.840919 80.1608C0.302484 79.6234 0 78.8945 0 78.1345C0 77.3745 0.302484 76.6456 0.840919 76.1082C1.37935 75.5708 2.10963 75.2689 2.87109 75.2689H95.1289C95.8904 75.2689 96.6206 75.5708 97.1591 76.1082C97.6975 76.6456 98 77.3745 98 78.1345C98 78.8945 97.6975 79.6234 97.1591 80.1608C96.6206 80.6982 95.8904 81.0001 95.1289 81.0001Z" fill="#FFE0B2"/>
<path d="M95.0428 75.2689H89.1265C89.8879 75.2689 90.6182 75.5708 91.1566 76.1082C91.6951 76.6456 91.9976 77.3745 91.9976 78.1345C91.9976 78.8945 91.6951 79.6234 91.1566 80.1608C90.6182 80.6982 89.8879 81.0001 89.1265 81.0001H95.0428C95.8043 81.0001 96.5346 80.6982 97.073 80.1608C97.6114 79.6234 97.9139 78.8945 97.9139 78.1345C97.9139 77.3745 97.6114 76.6456 97.073 76.1082C96.5346 75.5708 95.8043 75.2689 95.0428 75.2689Z" fill="#FFCC80"/>
<path d="M88.1962 16.5228C86.6996 15.3849 84.8697 14.7694 82.9883 14.7711C81.1069 14.7728 79.2782 15.3917 77.7837 16.5324C77.4811 16.7632 77.2828 17.1045 77.2324 17.4812C77.1819 17.8579 77.2835 18.2392 77.5147 18.5412C77.746 18.8431 78.0879 19.0411 78.4654 19.0914C78.8428 19.1417 79.2248 19.0403 79.5274 18.8096C80.5226 18.0514 81.7398 17.6406 82.9918 17.6406C84.2438 17.6406 85.4611 18.0514 86.4563 18.8096C86.7595 19.0333 87.1389 19.129 87.5122 19.0759C87.8856 19.0228 88.223 18.8252 88.4516 18.5258C88.6802 18.2264 88.7815 17.8493 88.7337 17.4759C88.6859 17.1025 88.4928 16.7629 88.1962 16.5305V16.5228Z" fill="#26C6DA"/>
<path d="M90.2308 12.8148C88.1502 11.2303 85.6051 10.3731 82.9879 10.3751C80.3708 10.3772 77.8271 11.2385 75.749 12.8263C75.5937 12.9385 75.4624 13.0805 75.363 13.2442C75.2636 13.4078 75.198 13.5897 75.1701 13.779C75.1423 13.9683 75.1527 14.1613 75.2008 14.3466C75.2489 14.5318 75.3337 14.7056 75.4502 14.8576C75.5667 15.0096 75.7126 15.1368 75.8791 15.2316C76.0456 15.3264 76.2295 15.387 76.4199 15.4097C76.6103 15.4325 76.8033 15.4169 76.9876 15.364C77.1718 15.311 77.3436 15.2218 77.4927 15.1015C79.0717 13.8965 81.0041 13.2437 82.9918 13.2437C84.9795 13.2437 86.9119 13.8965 88.4909 15.1015C88.641 15.2156 88.8121 15.299 88.9944 15.347C89.1768 15.395 89.3668 15.4067 89.5537 15.3814C89.7406 15.3562 89.9207 15.2944 90.0836 15.1997C90.2466 15.1049 90.3893 14.9791 90.5035 14.8293C90.6178 14.6795 90.7014 14.5088 90.7495 14.3268C90.7976 14.1448 90.8093 13.9551 90.784 13.7685C90.7587 13.582 90.6968 13.4023 90.6019 13.2396C90.5069 13.077 90.3809 12.9346 90.2308 12.8205V12.8148Z" fill="#26C6DA"/>
<path d="M92.2674 9.21378C89.625 7.2008 86.3925 6.11133 83.0684 6.11341C79.7442 6.11548 76.5131 7.20897 73.8732 9.22524C73.7235 9.33939 73.5979 9.48184 73.5033 9.64447C73.4088 9.8071 73.3473 9.98672 73.3224 10.1731C73.2974 10.3594 73.3094 10.5489 73.3578 10.7306C73.4062 10.9123 73.49 11.0827 73.6043 11.2321C73.7187 11.3815 73.8614 11.5069 74.0244 11.6013C74.1873 11.6956 74.3673 11.757 74.554 11.7819C74.7407 11.8068 74.9305 11.7948 75.1126 11.7465C75.2946 11.6982 75.4654 11.6146 75.615 11.5005C77.7559 9.8673 80.3757 8.98246 83.0703 8.98246C85.7649 8.98246 88.3847 9.8673 90.5256 11.5005C90.8284 11.731 91.2106 11.8321 91.588 11.7814C91.9655 11.7307 92.3072 11.5324 92.5382 11.2302C92.7692 10.928 92.8704 10.5465 92.8196 10.1698C92.7688 9.79309 92.5702 9.45195 92.2674 9.22141V9.21378Z" fill="#26C6DA"/>
<path d="M82.9746 19.1993C82.5939 19.1993 82.2287 19.3503 81.9595 19.619C81.6903 19.8877 81.5391 20.2521 81.5391 20.6321V21.5873C81.5391 21.9673 81.6903 22.3317 81.9595 22.6004C82.2287 22.8691 82.5939 23.0201 82.9746 23.0201C83.3553 23.0201 83.7205 22.8691 83.9897 22.6004C84.2589 22.3317 84.4102 21.9673 84.4102 21.5873V20.6321C84.4102 20.2521 84.2589 19.8877 83.9897 19.619C83.7205 19.3503 83.3553 19.1993 82.9746 19.1993Z" fill="#26C6DA"/>
<path d="M36.8802 30.9481H15.5652C15.1039 30.9481 14.9489 30.2012 15.3546 29.9356L26.0141 22.9895C26.0755 22.9475 26.1482 22.925 26.2227 22.925C26.2972 22.925 26.3699 22.9475 26.4313 22.9895L37.0908 29.9356C37.4965 30.2012 37.3415 30.9481 36.8802 30.9481Z" fill="#FF5622"/>
<path d="M37.0907 29.9356L26.4313 22.9895C26.3698 22.9475 26.2971 22.925 26.2227 22.925C26.1482 22.925 26.0755 22.9475 26.014 22.9895L23.3516 24.7222L31.3485 29.9356C31.7543 30.2012 31.5993 30.9481 31.138 30.9481H36.8802C37.3414 30.9481 37.4965 30.2012 37.0907 29.9356Z" fill="#E8491D"/>
<path d="M34.3574 30.9481H18.0879V42.9835H34.3574V30.9481Z" fill="#FFD54F"/>
<path d="M34.3574 30.9481H28.6152V42.9835H34.3574V30.9481Z" fill="#FFCA28"/>
<path d="M56.1835 29.0377C55.8027 29.0377 55.4376 29.1887 55.1684 29.4574C54.8992 29.7261 54.7479 30.0905 54.7479 30.4705V42.6014C54.7479 42.9814 54.8992 43.3458 55.1684 43.6145C55.4376 43.8832 55.8027 44.0342 56.1835 44.0342C56.5642 44.0342 56.9293 43.8832 57.1986 43.6145C57.4678 43.3458 57.619 42.9814 57.619 42.6014V30.4705C57.619 30.0905 57.4678 29.7261 57.1986 29.4574C56.9293 29.1887 56.5642 29.0377 56.1835 29.0377Z" fill="#5CBA2D"/>
<path d="M55.0791 31.8078H59.2747C61.7231 31.8078 64.0712 30.8371 65.8024 29.1092C67.5337 27.3812 68.5063 25.0377 68.5063 22.5941V18.0531C68.5063 17.8504 68.4256 17.6561 68.282 17.5128C68.1384 17.3694 67.9437 17.2889 67.7406 17.2889H64.3125C61.8642 17.2889 59.5161 18.2597 57.7849 19.9876C56.0536 21.7155 55.081 24.0591 55.081 26.5027V31.8078H55.0791Z" fill="#66CF32"/>
<path d="M64.3125 17.2889C63.7941 17.2891 63.2767 17.3332 62.7659 17.4208V22.5941C62.7655 24.7698 61.9937 26.8752 60.5872 28.5374C59.1806 30.1997 57.2301 31.3115 55.0809 31.676V31.8078H59.2766C61.7249 31.8078 64.073 30.8371 65.8042 29.1092C67.5355 27.3812 68.5081 25.0377 68.5081 22.5941V18.0531C68.5081 17.8504 68.4274 17.6561 68.2838 17.5128C68.1402 17.3694 67.9455 17.2889 67.7425 17.2889H64.3125Z" fill="#5CBA2D"/>
<path d="M57.4563 31.8078H53.2607C52.0479 31.8086 50.8469 31.5708 49.7262 31.1081C48.6055 30.6454 47.5872 29.9668 46.7293 29.1112C45.8715 28.2555 45.191 27.2396 44.7267 26.1213C44.2624 25.0031 44.0234 23.8045 44.0234 22.5941V18.0531C44.0234 17.8504 44.1041 17.6561 44.2477 17.5128C44.3913 17.3694 44.586 17.2889 44.7891 17.2889H48.2344C50.6827 17.2889 53.0308 18.2597 54.762 19.9876C56.4933 21.7155 57.4659 24.0591 57.4659 26.5027L57.4563 31.8078Z" fill="#6FE036"/>
<path d="M78.7637 41.5507H10.8145C10.4337 41.5507 10.0686 41.7016 9.79937 41.9703C9.53015 42.239 9.37891 42.6034 9.37891 42.9834C9.37891 43.3634 9.53015 43.7279 9.79937 43.9966C10.0686 44.2653 10.4337 44.4162 10.8145 44.4162H78.7637C79.1444 44.4162 79.5095 44.2653 79.7788 43.9966C80.048 43.7279 80.1992 43.3634 80.1992 42.9834C80.1992 42.6034 80.048 42.239 79.7788 41.9703C79.5095 41.7016 79.1444 41.5507 78.7637 41.5507Z" fill="#66CF32"/>
</svg>
