<svg width="50" height="50" viewBox="0 0 50 50" fill="none" xmlns="http://www.w3.org/2000/svg">
<path fill-rule="evenodd" clip-rule="evenodd" d="M25 0C38.807 0 50 11.193 50 25C50 38.807 38.807 50 25 50C11.193 50 0 38.807 0 25C0 11.193 11.193 0 25 0Z" fill="#E63A28"/>
<path fill-rule="evenodd" clip-rule="evenodd" d="M38.006 21.09C37.879 20.903 37.688 20.794 37.489 20.794H34.957C34.333 18.828 33.52 16.897 32.597 16.169C29.399 13.651 20.911 13.651 17.713 16.169C16.789 16.897 15.977 18.828 15.349 20.794H12.82C12.619 20.794 12.43 20.903 12.303 21.09C12.176 21.276 12.128 21.517 12.167 21.755L12.544 23.923C12.605 24.292 12.878 24.556 13.194 24.556H13.944C13.22 25.555 12.868 26.814 12.865 28.069C12.859 29.624 13.353 31.027 14.257 32.022C14.267 32.03 14.277 32.042 14.286 32.049V35.088C14.286 35.744 14.732 36.281 15.284 36.281H17.618C18.168 36.281 18.616 35.744 18.616 35.088V33.867H31.693V35.088C31.693 35.744 32.139 36.281 32.692 36.281H35.025C35.575 36.281 36.024 35.744 36.024 35.088V32.107C36.979 31.062 37.437 29.62 37.444 28.178C37.448 26.881 37.08 25.575 36.312 24.556H37.112C37.428 24.556 37.7 24.292 37.765 23.923L38.14 21.755C38.178 21.517 38.13 21.276 38.006 21.09ZM18.811 18.163C21.359 16.158 28.95 16.158 31.495 18.163C31.993 18.552 32.629 20.122 33.212 22.046H17.095C17.677 20.122 18.313 18.552 18.811 18.163ZM17.787 30.72C16.705 30.72 15.824 29.667 15.824 28.369C15.824 27.074 16.705 26.022 17.787 26.022C18.873 26.022 19.754 27.074 19.754 28.369C19.754 29.667 18.873 30.72 17.787 30.72ZM32.545 30.72C31.463 30.72 30.582 29.667 30.582 28.369C30.582 27.074 31.463 26.022 32.545 26.022C33.631 26.022 34.512 27.074 34.512 28.369C34.512 29.667 33.631 30.72 32.545 30.72Z" fill="white"/>
</svg>
