<svg width="14" height="14" viewBox="0 0 14 14" fill="none" xmlns="http://www.w3.org/2000/svg">
<g clip-path="url(#clip0_1_601)">
<path fill-rule="evenodd" clip-rule="evenodd" d="M6.306 14.115C6.306 14.61 6.67 15 7.164 15C7.658 15 8.048 14.61 8.048 14.115V9.358H12.806C13.274 9.358 13.664 8.993 13.664 8.5C13.664 8.006 13.274 7.615 12.806 7.615H8.048V2.857C8.048 2.389 7.658 2 7.164 2C6.67 2 6.306 2.389 6.306 2.857V7.615H1.548C1.054 7.615 0.664001 8.006 0.664001 8.5C0.664001 8.993 1.054 9.358 1.548 9.358H6.306V14.115Z" fill="white"/>
</g>
<defs>
<clipPath id="clip0_1_601">
<rect width="14" height="14" fill="white"/>
</clipPath>
</defs>
</svg>
