<svg width="50" height="50" viewBox="0 0 50 50" fill="none" xmlns="http://www.w3.org/2000/svg">
<path fill-rule="evenodd" clip-rule="evenodd" d="M25 0C38.807 0 50 11.193 50 25C50 38.807 38.807 50 25 50C11.193 50 0 38.807 0 25C0 11.193 11.193 0 25 0Z" fill="white"/>
<path d="M28.7695 25.3747C29.0926 25.3747 29.3554 25.0781 29.3554 24.7134C29.3554 24.3487 29.0926 24.0521 28.7695 24.0521C28.4464 24.0521 28.1836 24.3487 28.1836 24.7134C28.1836 25.0781 28.4464 25.3747 28.7695 25.3747Z" fill="#7828E6"/>
<path d="M21.2305 25.3748C21.5536 25.3748 21.8164 25.0781 21.8164 24.7134C21.8164 24.3488 21.5536 24.0521 21.2305 24.0521C20.9074 24.0521 20.6446 24.3488 20.6446 24.7134C20.6446 25.0781 20.9074 25.3748 21.2305 25.3748Z" fill="#7828E6"/>
<path d="M34.9964 35.2651L33.5503 20.672C33.5171 20.3373 33.2664 20.0842 32.968 20.0842H29.3554V22.8432C30.0374 23.1162 30.5273 23.8513 30.5273 24.7134C30.5273 25.8074 29.7388 26.6974 28.7695 26.6974C27.8003 26.6974 27.0117 25.8074 27.0117 24.7134C27.0117 23.8513 27.5016 23.1162 28.1836 22.8432V20.0842H21.8164V22.8432C22.4984 23.1162 22.9883 23.8513 22.9883 24.7134C22.9883 25.8074 22.1997 26.6974 21.2305 26.6974C20.2612 26.6974 19.4727 25.8074 19.4727 24.7134C19.4727 23.8513 19.9626 23.1162 20.6445 22.8432V20.0842H17.0301C16.7316 20.0842 16.4808 20.3373 16.4478 20.6721L15.0036 35.2652C14.9851 35.4522 15.0381 35.6393 15.1493 35.7796C15.2604 35.9198 15.4192 36 15.586 36H34.4141C34.5809 36 34.7397 35.9198 34.8508 35.7796C34.962 35.6393 35.0149 35.4522 34.9964 35.2651Z" fill="#7828E6"/>
<path d="M21.8164 18.9158C21.8164 16.9346 23.2446 15.3226 25 15.3226C26.7555 15.3226 28.1836 16.9346 28.1836 18.9158V20.0842H29.3555V18.9158C29.3555 16.2052 27.4016 14 25 14C22.5984 14 20.6446 16.2052 20.6446 18.9158L20.6445 20.0842H21.8164L21.8164 18.9158Z" fill="#7828E6"/>
</svg>
