<svg width="79" height="102" viewBox="0 0 79 102" fill="none" xmlns="http://www.w3.org/2000/svg">
<path fill-rule="evenodd" clip-rule="evenodd" d="M79.0001 92.8024V100.964C79.0001 101.236 78.8926 101.497 78.7013 101.689C78.5101 101.881 78.2507 101.989 77.9802 101.989H69.3483L67.7393 89.849L79.0001 92.8024Z" fill="#EFF6FF"/>
<path fill-rule="evenodd" clip-rule="evenodd" d="M0 92.8024V100.964C0 101.236 0.107446 101.497 0.298708 101.689C0.48997 101.881 0.749377 101.989 1.01986 101.989H9.64646C10.1749 98.9643 11.9927 89.6259 11.9927 89.6259L0 92.8024Z" fill="#EFF6FF"/>
<path fill-rule="evenodd" clip-rule="evenodd" d="M50.6842 21.2213L46.0366 38.0734L43.2571 24.5067C43.1748 24.1422 43.1201 23.772 43.0933 23.3992C43.0778 22.779 43.2053 22.1635 43.4658 21.6011L45.4712 16.483L50.6842 21.2213Z" fill="#D9EEFF"/>
<path fill-rule="evenodd" clip-rule="evenodd" d="M43.2571 24.5067L46.0366 38.0734L40.105 59.5868C39.9465 60.0436 39.7219 60.2721 39.5 60.2721C39.278 60.2721 39.0508 60.0436 38.887 59.5868L32.958 38.0734L35.7375 24.5067C35.8214 24.1423 35.878 23.7721 35.9066 23.3992H43.0933C43.1198 23.772 43.1746 24.1422 43.2571 24.5067Z" fill="#FF6D75"/>
<path fill-rule="evenodd" clip-rule="evenodd" d="M45.4712 16.483L43.4685 21.6011C43.2057 22.1629 43.0773 22.7786 43.0933 23.3992H35.9067C35.9169 22.7794 35.7896 22.1652 35.5341 21.6011L33.5234 16.483L39.5 11.0542L45.4712 16.483Z" fill="#FE8D94"/>
<path fill-rule="evenodd" clip-rule="evenodd" d="M29.695 2.14343L39.5 11.0542L33.5235 16.483L28.3105 21.2213L24.8018 8.49918C25.518 8.07144 26.1229 7.47883 26.5667 6.77013L29.695 2.14343Z" fill="#EFF6FF"/>
<path fill-rule="evenodd" clip-rule="evenodd" d="M54.1903 8.49918L50.6842 21.2107L45.4712 16.483L39.5 11.0542L49.3023 2.14343L52.4253 6.78076C52.872 7.48713 53.4763 8.07913 54.1903 8.5098V8.49918Z" fill="#EFF6FF"/>
<path fill-rule="evenodd" clip-rule="evenodd" d="M45.3418 0C47.8598 0 47.9417 0.122175 48.9325 1.59358L49.3024 2.15134L39.5 11.0621L29.6951 2.15134L30.0676 1.59358C31.0531 0.130143 31.1244 0 33.653 0H45.3418Z" fill="#D9EEFF"/>
<path fill-rule="evenodd" clip-rule="evenodd" d="M35.9067 23.3992C35.878 23.7721 35.8215 24.1423 35.7376 24.5067L32.9581 38.0734L28.3105 21.2213L33.5235 16.483L35.5342 21.6011C35.7884 22.1656 35.9156 22.7796 35.9067 23.3992Z" fill="#D9EEFF"/>
<path fill-rule="evenodd" clip-rule="evenodd" d="M79.0001 29.3777V92.8024H68.812L61.3691 75.6953C60.6689 74.0857 60.6689 72.277 60.5764 70.5374C60.3677 66.3383 60.7799 62.0382 61.3691 58.0994L67.9454 14.0103C78.8046 18.2784 78.868 22.6926 78.9737 29.3804L79.0001 29.3777Z" fill="#7E707D"/>
<path fill-rule="evenodd" clip-rule="evenodd" d="M20.2362 70.4045C20.2018 71.1349 11.348 88.5634 10.1828 92.8023H0V29.3777C0.100401 22.6899 0.169089 18.2757 11.023 14.0076C11.4642 19.0539 20.2388 70.2213 20.2256 70.4045H20.2362Z" fill="#7E707D"/>
<path fill-rule="evenodd" clip-rule="evenodd" d="M69.4459 74.9542L74.3524 92.8023H68.8039L64.093 75.6501C63.638 73.9659 63.3722 72.2358 63.3003 70.4922C63.0916 66.2931 63.7495 62.0302 64.093 58.0542L65.7232 39.3456C65.7314 39.2424 65.778 39.1462 65.8537 39.076C65.9293 39.0059 66.0285 38.9669 66.1314 38.9669C66.2343 38.9669 66.3335 39.0059 66.4091 39.076C66.4847 39.1462 66.5313 39.2424 66.5396 39.3456L68.6375 69.791C68.7115 71.5344 68.9773 73.2643 69.4301 74.9489L69.4459 74.9542Z" fill="#6A5C6B"/>
<path fill-rule="evenodd" clip-rule="evenodd" d="M69.3482 101.989H46.0974C45.0114 101.989 44.1765 101.503 43.907 100.661L41.0403 91.5886L39.5105 86.7441V60.2614C39.7324 60.2614 39.9597 60.033 40.1182 59.5762L41.043 57.6054C49.7805 38.833 53.284 27.7443 59.8021 10.7992L67.9743 14.0076L64.13 58.0543C63.7812 62.0383 63.1233 66.2878 63.3373 70.4922C63.4061 72.2352 63.6676 73.9652 64.1168 75.6501L70.7591 99.8195C71.1475 101.232 71.0233 102 69.3667 102L69.3482 101.989Z" fill="#7E707D"/>
<path fill-rule="evenodd" clip-rule="evenodd" d="M39.5001 60.2614V86.7361L37.9703 91.5806L35.1035 100.661C34.8393 101.511 33.9938 101.989 32.9053 101.989H9.65443C8.01102 101.989 7.87892 101.222 8.26203 99.8088L14.9017 75.6395C15.354 73.9548 15.6198 72.225 15.6944 70.4816C15.8978 66.2825 15.2399 62.017 14.9017 58.0437L11.031 14.0076L19.2058 10.7992L37.9914 57.369L38.8871 59.5894C39.0509 60.0463 39.2728 60.2747 39.5001 60.2747V60.2614Z" fill="#7E707D"/>
<path fill-rule="evenodd" clip-rule="evenodd" d="M39.5 11.0542L45.4712 16.483L44.2056 19.71L39.4498 15.3888L34.7626 19.6542L33.5234 16.4857L39.5 11.0542Z" fill="#FF6D75"/>
<path fill-rule="evenodd" clip-rule="evenodd" d="M40.1052 59.5761L56.0135 36.6099C56.2645 36.246 56.4732 35.9619 56.637 35.7042L45.4449 64.6172V83.0337L50.7292 101.989H46.0791C44.9905 101.989 44.1582 101.503 43.8887 100.661L39.4922 86.7441V60.2614C39.7141 60.2614 39.9387 60.0329 40.0972 59.5761H40.1052Z" fill="#6A5C6B"/>
<path fill-rule="evenodd" clip-rule="evenodd" d="M38.8871 59.5761L22.9867 36.6099C22.7357 36.246 22.527 35.9619 22.3579 35.7042L33.5553 64.6172V83.0337L28.271 101.989H32.9186C34.0071 101.989 34.8473 101.503 35.1142 100.661L39.5133 86.7441V60.2614C39.2861 60.2614 39.0642 60.0329 38.9003 59.5761H38.8871Z" fill="#6A5C6B"/>
<path fill-rule="evenodd" clip-rule="evenodd" d="M9.5539 74.9542L4.64746 92.8023H10.1827L14.8937 75.6501C15.3459 73.9653 15.6118 72.2355 15.6863 70.4922C15.8898 66.2931 15.2319 62.0302 14.8937 58.0542L13.2582 39.3349C13.2499 39.2318 13.2033 39.1356 13.1277 39.0654C13.0521 38.9953 12.9529 38.9563 12.85 38.9563C12.7471 38.9563 12.6479 38.9953 12.5723 39.0654C12.4966 39.1356 12.45 39.2318 12.4418 39.3349L10.3439 69.7883C10.2686 71.5316 10.0027 73.2613 9.55127 74.9462L9.5539 74.9542Z" fill="#6A5C6B"/>
<path d="M5.21827 75.4775C4.81254 75.4775 4.42342 75.3154 4.13653 75.0271C3.84964 74.7387 3.68848 74.3475 3.68848 73.9397C3.689 73.635 3.77939 73.3373 3.94821 73.0843C4.11703 72.8312 4.3567 72.6342 4.63692 72.5181C4.91713 72.402 5.2253 72.372 5.52246 72.432C5.81962 72.4919 6.09243 72.6391 6.30638 72.8549C6.52033 73.0707 6.66581 73.3455 6.72442 73.6444C6.78304 73.9433 6.75216 74.253 6.6357 74.5343C6.51923 74.8156 6.32239 75.0558 6.0701 75.2246C5.8178 75.3935 5.52136 75.4833 5.21827 75.4828V75.4775Z" fill="#EFF6FF"/>
<path d="M5.21827 81.6712C5.0175 81.6716 4.81863 81.6321 4.63305 81.5551C4.44746 81.4781 4.27878 81.3651 4.13669 81.2225C3.9946 81.0799 3.88189 80.9106 3.80497 80.7241C3.72806 80.5377 3.68848 80.3379 3.68848 80.136C3.68848 79.8313 3.77841 79.5333 3.94692 79.2799C4.11542 79.0265 4.35491 78.8291 4.63508 78.7126C4.91525 78.5961 5.22351 78.5657 5.52085 78.6254C5.81819 78.685 6.09123 78.832 6.30544 79.0477C6.51965 79.2634 6.6654 79.5382 6.72423 79.8371C6.78306 80.1361 6.75233 80.446 6.63594 80.7274C6.51955 81.0088 6.32273 81.2492 6.07037 81.4182C5.81801 81.5871 5.52147 81.677 5.21827 81.6765V81.6712Z" fill="#EFF6FF"/>
<path d="M41.0298 57.6054V91.5806L39.5 86.7361L37.9702 91.5806V57.6134C37.9686 57.5244 37.9757 57.4354 37.9913 57.3478L38.887 59.5682C39.0508 60.025 39.2728 60.2534 39.5 60.2534C39.7272 60.2534 39.9491 60.025 40.1077 59.5682C40.4194 58.9015 40.7286 58.2402 41.0298 57.5974V57.6054Z" fill="#7E707D"/>
<path d="M73.7739 75.4775C73.3682 75.4775 72.9791 75.3154 72.6922 75.0271C72.4053 74.7387 72.2441 74.3475 72.2441 73.9397C72.2447 73.635 72.3351 73.3373 72.5039 73.0843C72.6727 72.8312 72.9123 72.6342 73.1926 72.5181C73.4728 72.402 73.781 72.372 74.0781 72.432C74.3753 72.4919 74.6481 72.6391 74.862 72.8549C75.076 73.0707 75.2215 73.3455 75.2801 73.6444C75.3387 73.9433 75.3078 74.253 75.1914 74.5343C75.0749 74.8156 74.878 75.0558 74.6257 75.2246C74.3734 75.3935 74.077 75.4833 73.7739 75.4828V75.4775Z" fill="#EFF6FF"/>
<path d="M73.7739 81.6712C73.5731 81.6716 73.3743 81.6321 73.1887 81.5551C73.0031 81.4781 72.8344 81.3651 72.6924 81.2225C72.5503 81.0799 72.4375 80.9106 72.3606 80.7241C72.2837 80.5377 72.2441 80.3379 72.2441 80.136C72.2441 79.8313 72.3341 79.5333 72.5026 79.2799C72.6711 79.0265 72.9106 78.8291 73.1907 78.7126C73.4709 78.5961 73.7792 78.5657 74.0765 78.6254C74.3738 78.685 74.6469 78.832 74.8611 79.0477C75.0753 79.2634 75.2211 79.5382 75.2799 79.8371C75.3387 80.1361 75.308 80.446 75.1916 80.7274C75.0752 81.0088 74.8784 81.2492 74.626 81.4182C74.3737 81.5871 74.0771 81.677 73.7739 81.6765V81.6712Z" fill="#EFF6FF"/>
<path d="M57.3714 69.9636H49.1173C48.9109 69.9722 48.7049 69.9388 48.5116 69.8654C48.3184 69.7919 48.1419 69.6799 47.9928 69.5361C47.8437 69.3924 47.7251 69.2198 47.6441 69.0288C47.563 68.8377 47.5212 68.6322 47.5212 68.4245C47.5212 68.2168 47.563 68.0113 47.6441 67.8202C47.7251 67.6292 47.8437 67.4566 47.9928 67.3128C48.1419 67.1691 48.3184 67.0571 48.5116 66.9836C48.7049 66.9102 48.9109 66.8767 49.1173 66.8854H57.3714C57.7664 66.9019 58.1399 67.0712 58.4136 67.3581C58.6873 67.6449 58.8402 68.027 58.8402 68.4245C58.8402 68.822 58.6873 69.2041 58.4136 69.4909C58.1399 69.7778 57.7664 69.9471 57.3714 69.9636Z" fill="#584657"/>
<path d="M29.8775 69.9636H21.6234C21.417 69.9722 21.211 69.9388 21.0177 69.8654C20.8245 69.7919 20.648 69.6799 20.4989 69.5361C20.3498 69.3924 20.2312 69.2198 20.1502 69.0288C20.0691 68.8377 20.0273 68.6322 20.0273 68.4245C20.0273 68.2168 20.0691 68.0113 20.1502 67.8202C20.2312 67.6292 20.3498 67.4566 20.4989 67.3128C20.648 67.1691 20.8245 67.0571 21.0177 66.9836C21.211 66.9102 21.417 66.8767 21.6234 66.8854H29.8775C30.2725 66.9019 30.646 67.0712 30.9197 67.3581C31.1934 67.6449 31.3463 68.027 31.3463 68.4245C31.3463 68.822 31.1934 69.2041 30.9197 69.4909C30.646 69.7778 30.2725 69.9471 29.8775 69.9636Z" fill="#584657"/>
<path fill-rule="evenodd" clip-rule="evenodd" d="M40.105 59.5762L56.0133 36.61C56.2643 36.2461 56.473 35.9619 56.6369 35.7043C57.1362 34.9367 57.2472 34.4427 56.8694 33.0855L55.9552 29.8054C55.6646 28.7749 55.617 28.2118 56.4836 27.2955L59.1258 23.7683C59.5511 23.2186 59.7863 22.7856 59.7863 21.3222C59.7863 21.285 59.7863 10.7992 59.7863 10.7992L55.2947 9.03034C54.9134 8.88022 54.5435 8.70269 54.1876 8.49915L50.6815 21.2106L46.0339 38.0628L40.105 59.5762Z" fill="#584657"/>
<path fill-rule="evenodd" clip-rule="evenodd" d="M38.8871 59.5762L22.9867 36.61C22.7357 36.2461 22.527 35.9619 22.3579 35.7043C21.8559 34.9367 21.7449 34.4427 22.1227 33.0855L23.0395 29.8054C23.3302 28.7749 23.3777 28.2118 22.527 27.2955L19.8848 23.7683C19.4515 23.2186 19.219 22.7856 19.219 21.3222C19.219 21.285 19.219 10.7992 19.219 10.7992L23.7106 9.03034C24.09 8.88191 24.4575 8.70432 24.8098 8.49915L28.3185 21.2106L32.9661 38.0628L38.8871 59.5762Z" fill="#584657"/>
</svg>
