<svg width="88" height="66" viewBox="0 0 88 66" fill="none" xmlns="http://www.w3.org/2000/svg">
<path d="M85.6697 52.1411L65.9819 32.2991C68.1379 27.3696 68.5095 21.8343 67.032 16.6572C65.5545 11.4801 62.3215 6.98905 57.8959 3.96607C53.4703 0.943083 48.1325 -0.420331 42.8119 0.113222C37.4914 0.646776 32.5251 3.0435 28.7778 6.88606C25.0305 10.7286 22.7396 15.7736 22.304 21.1426C21.8684 26.5116 23.3157 31.8644 26.3939 36.269C29.4721 40.6737 33.9861 43.8511 39.1501 45.2481C44.314 46.645 49.8007 46.173 54.6548 43.9142L74.2417 63.6523C75.7605 65.1629 77.8108 66.0069 79.945 66C82.0792 65.993 84.124 65.1358 85.6331 63.6154C87.1422 62.095 87.9931 60.0349 88 57.8847C88.0068 55.7345 87.1691 53.6689 85.6697 52.1388V52.1411ZM32.5531 35.6042C30.0758 33.1092 28.3886 29.9301 27.7048 26.4689C27.021 23.0078 27.3714 19.4201 28.7116 16.1596C30.0518 12.899 32.3217 10.1122 35.2341 8.15144C38.1465 6.19069 41.5706 5.14413 45.0735 5.14413C48.5763 5.14413 52.0004 6.19069 54.9129 8.15144C57.8253 10.1122 60.0951 12.899 61.4353 16.1596C62.7755 19.4201 63.1259 23.0078 62.4421 26.4689C61.7583 29.9301 60.0711 33.1092 57.5938 35.6042C54.2693 38.9421 49.767 40.8164 45.0735 40.8164C40.3799 40.8164 35.8777 38.9421 32.5531 35.6042ZM82.0247 59.98C81.4774 60.5311 80.7353 60.8408 79.9615 60.8408C79.1877 60.8408 78.4455 60.5311 77.8982 59.98L59.1848 41.1219C60.7187 39.901 62.0923 38.4885 63.2723 36.9184L82.0178 55.8088C82.5627 56.3613 82.8684 57.1086 82.8684 57.8875C82.8684 58.6663 82.5627 59.4136 82.0178 59.9661L82.0247 59.98Z" fill="url(#paint0_linear_1_3)"/>
<path d="M2.57903 31.0796H13.5829C14.2669 31.0796 14.9229 30.8059 15.4066 30.3186C15.8902 29.8313 16.1619 29.1704 16.1619 28.4813C16.1619 27.7922 15.8902 27.1313 15.4066 26.644C14.9229 26.1567 14.2669 25.883 13.5829 25.883H2.57903C1.89503 25.883 1.23904 26.1567 0.75538 26.644C0.271718 27.1313 0 27.7922 0 28.4813C0 29.1704 0.271718 29.8313 0.75538 30.3186C1.23904 30.8059 1.89503 31.0796 2.57903 31.0796Z" fill="url(#paint1_linear_1_3)"/>
<path d="M2.57903 42.1658H17.7094C18.3934 42.1658 19.0493 41.892 19.533 41.4048C20.0167 40.9175 20.2884 40.2566 20.2884 39.5675C20.2884 38.8784 20.0167 38.2175 19.533 37.7302C19.0493 37.2429 18.3934 36.9691 17.7094 36.9691H2.57903C1.89503 36.9691 1.23904 37.2429 0.75538 37.7302C0.271718 38.2175 0 38.8784 0 39.5675C0 40.2566 0.271718 40.9175 0.75538 41.4048C1.23904 41.892 1.89503 42.1658 2.57903 42.1658Z" fill="url(#paint2_linear_1_3)"/>
<path d="M2.57903 53.252H28.6995C29.3835 53.252 30.0395 52.9783 30.5231 52.491C31.0068 52.0037 31.2785 51.3428 31.2785 50.6537C31.2785 49.9646 31.0068 49.3037 30.5231 48.8164C30.0395 48.3291 29.3835 48.0553 28.6995 48.0553H2.57903C1.89503 48.0553 1.23904 48.3291 0.75538 48.8164C0.271718 49.3037 0 49.9646 0 50.6537C0 51.3428 0.271718 52.0037 0.75538 52.491C1.23904 52.9783 1.89503 53.252 2.57903 53.252Z" fill="url(#paint3_linear_1_3)"/>
<path d="M58.9441 59.1416H2.57912C1.90813 59.1617 1.27132 59.4444 0.803768 59.9297C0.336219 60.415 0.074707 61.0647 0.074707 61.741C0.074707 62.4174 0.336219 63.0671 0.803768 63.5524C1.27132 64.0377 1.90813 64.3204 2.57912 64.3405H58.9441C59.6151 64.3204 60.2519 64.0377 60.7195 63.5524C61.187 63.0671 61.4485 62.4174 61.4485 61.741C61.4485 61.0647 61.187 60.415 60.7195 59.9297C60.2519 59.4444 59.6151 59.1617 58.9441 59.1416Z" fill="url(#paint4_linear_1_3)"/>
<defs>
<linearGradient id="paint0_linear_1_3" x1="20.5" y1="11.5" x2="82.5" y2="64.5" gradientUnits="userSpaceOnUse">
<stop stop-color="#E63A28"/>
<stop offset="1" stop-color="#E4766A"/>
</linearGradient>
<linearGradient id="paint1_linear_1_3" x1="20.5" y1="11.5" x2="82.5" y2="64.5" gradientUnits="userSpaceOnUse">
<stop stop-color="#E63A28"/>
<stop offset="1" stop-color="#E4766A"/>
</linearGradient>
<linearGradient id="paint2_linear_1_3" x1="20.5" y1="11.5" x2="82.5" y2="64.5" gradientUnits="userSpaceOnUse">
<stop stop-color="#E63A28"/>
<stop offset="1" stop-color="#E4766A"/>
</linearGradient>
<linearGradient id="paint3_linear_1_3" x1="20.5" y1="11.5" x2="82.5" y2="64.5" gradientUnits="userSpaceOnUse">
<stop stop-color="#E63A28"/>
<stop offset="1" stop-color="#E4766A"/>
</linearGradient>
<linearGradient id="paint4_linear_1_3" x1="20.5" y1="11.5" x2="82.5" y2="64.5" gradientUnits="userSpaceOnUse">
<stop stop-color="#E63A28"/>
<stop offset="1" stop-color="#E4766A"/>
</linearGradient>
</defs>
</svg>
