<svg width="39" height="62" viewBox="0 0 39 62" fill="none" xmlns="http://www.w3.org/2000/svg">
<path opacity="0.2" fill-rule="evenodd" clip-rule="evenodd" d="M35.7789 45.5026L32.2222 46.1358L34.2637 57.5736C34.3766 58.2088 33.9741 58.8121 33.3638 58.9208L16.1465 61.9831C15.5363 62.0918 14.95 61.664 14.8371 61.0288L12.7956 49.5901L9.23885 50.2223C7.10243 50.6022 5.04191 49.1025 4.64538 46.8777L0.0668942 21.2201C-0.330627 18.9954 1.08467 16.8773 3.2201 16.4964L6.77682 15.8642L4.73627 4.42647C4.62241 3.79126 5.02592 3.18696 5.63519 3.07927L22.8525 0.0169058C23.4627 -0.0917876 24.05 0.335009 24.1629 0.970217L26.2044 12.409L29.7611 11.7757C31.8966 11.3968 33.9581 12.8966 34.3546 15.1213L35.4603 21.3198L36.4501 21.1433C37.0604 21.0356 37.6467 21.4614 37.7605 22.0976C37.8744 22.7328 37.4709 23.3361 36.8606 23.4448L35.8708 23.6213L36.4391 26.8004L37.4279 26.6239C38.0382 26.5152 38.6255 26.942 38.7383 27.5772C38.8522 28.2134 38.4487 28.8167 37.8384 28.9254L36.8496 29.1009L38.9331 40.7789C39.3306 43.0037 37.9153 45.1227 35.7789 45.5026ZM16.8417 59.4862L31.8486 56.8157L30.0128 46.5287L15.0059 49.1972L16.8417 59.4862ZM22.1583 2.51486L7.15137 5.18333L8.98716 15.4713L23.9941 12.8018L22.1583 2.51486ZM36.7238 41.1728L32.1453 15.5142C31.9745 14.5589 31.0895 13.9137 30.1717 14.0772L3.6316 18.7979C2.71371 18.9605 2.10544 19.8719 2.27623 20.8272L6.85472 46.4848C7.02552 47.4401 7.91145 48.0863 8.82835 47.9228L35.3684 43.2021C36.2853 43.0386 36.8946 42.1281 36.7238 41.1728ZM21.2883 36.8929C21.1156 37.1073 20.8788 37.2419 20.6271 37.2868C20.3754 37.3307 20.1078 37.2878 19.8711 37.1452C19.0211 36.6356 14.7262 34.035 13.6316 32.8363C13.1332 32.2919 12.451 31.4074 12.2762 30.0153C11.9845 27.7018 13.4468 25.5898 15.6042 25.2059C16.7928 24.9945 17.8605 25.4581 18.6126 25.9508C19.1569 25.2298 20.0019 24.4231 21.1515 24.2196C23.3089 23.8357 25.4114 25.3136 25.9387 27.5851C26.2554 28.9493 25.9218 30.0153 25.6441 30.6984C25.0268 32.2131 21.9076 36.1241 21.2883 36.8929ZM23.7544 28.1007C23.5117 27.0566 22.5289 26.3486 21.562 26.5202C20.775 26.6608 20.0988 27.7886 19.925 28.1725C19.7682 28.5175 19.4576 28.7598 19.092 28.8177C18.7274 28.8755 18.3559 28.7459 18.0982 28.4667C17.8035 28.1525 16.8447 27.3588 16.0147 27.5074C15.0479 27.6789 14.3707 28.683 14.5045 29.7451C14.5744 30.3065 14.7912 30.7402 15.2496 31.2418C15.8299 31.876 18.295 33.4855 20.1527 34.6283C21.4951 32.9201 23.245 30.5647 23.5726 29.762C23.8283 29.1318 23.8812 28.6501 23.7544 28.1007ZM32.7835 40.8128L10.4274 44.7886C9.81816 44.8973 9.23086 44.4705 9.118 43.8353L5.31657 22.5344C5.20371 21.8982 5.60623 21.2959 6.21649 21.1872L28.5716 17.2104C29.1818 17.1027 29.7691 17.5295 29.882 18.1647L30.8548 23.6143C30.9677 24.2496 30.5652 24.8519 29.9549 24.9605C29.3447 25.0702 28.7584 24.6434 28.6445 24.0072L27.8774 19.7084L7.73167 23.2913L11.1216 42.2907L31.2683 38.7078L30.5013 34.4099C30.3874 33.7737 30.7899 33.1714 31.4002 33.0617C32.0104 32.953 32.5977 33.3808 32.7106 34.016L33.6834 39.4656C33.7963 40.1008 33.3938 40.7041 32.7835 40.8128ZM30.8858 30.1828C30.4243 30.2646 29.9469 30.0303 29.7112 29.6045C29.4795 29.1866 29.5164 28.6511 29.8101 28.2832C30.1147 27.8993 30.6401 27.7646 31.0895 27.9521C31.522 28.1326 31.8097 28.5843 31.8037 29.065C31.7977 29.6154 31.4072 30.0901 30.8858 30.1828Z" fill="#5F8AD4"/>
</svg>
